<?xml version="1.0" standalone="no"?>
<!DOCTYPE svg PUBLIC "-//W3C//DTD SVG 20010904//EN"
 "http://www.w3.org/TR/2001/REC-SVG-20010904/DTD/svg10.dtd">
<svg version="1.0" xmlns="http://www.w3.org/2000/svg"
 width="1024.000000pt" height="1024.000000pt" viewBox="0 0 1024.000000 1024.000000"
 preserveAspectRatio="xMidYMid meet">

<g transform="translate(0.000000,1024.000000) scale(0.100000,-0.100000)"
fill="#000000" stroke="none">
<path d="M0 7125 c0 -2764 2 -3114 15 -3109 20 8 20 -29 0 -50 -13 -13 -15
-219 -15 -1735 0 -1708 0 -1721 20 -1721 26 0 50 -38 46 -75 -2 -17 -4 -51 -5
-77 -1 -46 -2 -48 -31 -48 l-30 0 0 -155 0 -155 2829 0 2828 0 11 88 c6 48 14
113 18 145 3 31 11 57 16 57 5 0 8 -59 6 -145 l-3 -145 2268 0 2267 0 0 2841
0 2840 -35 15 c-69 28 -225 -2 -388 -75 -62 -28 -70 -35 -89 -78 -31 -72 -62
-109 -144 -169 -71 -53 -91 -64 -79 -44 8 13 3 13 -31 0 -45 -17 -13 12 43 39
87 43 150 119 86 105 -52 -11 -128 -35 -148 -46 -27 -15 -162 -31 -255 -31
-41 1 -133 11 -205 23 -226 38 -383 29 -577 -33 -27 -8 -48 -11 -48 -6 0 5 -4
9 -10 9 -5 0 -10 -6 -10 -14 0 -13 -94 -36 -146 -36 -20 0 -12 6 51 40 18 10
18 10 -5 5 -14 -2 -58 -5 -98 -5 -46 0 -71 -4 -67 -10 3 -5 1 -10 -4 -10 -6 0
-11 4 -11 9 0 5 -11 8 -25 7 -14 0 -25 -4 -25 -8 0 -5 -9 -8 -20 -8 -11 0 -20
-3 -20 -8 0 -8 -71 -32 -95 -32 -18 0 -20 16 -2 23 6 3 1 6 -13 7 -14 1 -36 4
-50 6 -14 3 -35 5 -47 6 -13 0 -20 5 -17 10 4 6 -3 5 -15 -1 -12 -7 -25 -10
-30 -7 -4 3 -18 -4 -30 -15 -25 -23 -41 -18 -21 6 7 8 9 15 4 15 -5 0 -20 -14
-34 -32 -14 -17 -31 -38 -38 -47 -7 -9 6 20 29 64 23 44 46 84 50 89 5 5 1 15
-9 22 -14 11 -15 15 -3 38 8 14 11 29 6 33 -4 5 -10 2 -12 -4 -10 -28 -23 -11
-19 25 9 75 15 85 53 79 25 -4 36 -2 40 9 3 9 12 12 25 8 12 -3 24 -1 28 6 6
9 47 16 135 20 6 0 3 5 -5 10 -18 12 19 15 128 11 l72 -3 0 77 0 77 64 -6 c35
-4 153 -28 262 -52 545 -124 584 -128 829 -94 115 16 180 21 235 16 41 -4 105
-9 141 -13 l66 -5 57 51 c68 62 93 73 168 73 86 0 235 -51 290 -100 17 -14 18
94 18 2251 l0 2267 -314 0 -315 0 -3 -22 c-2 -15 -10 -23 -23 -23 -14 0 -20 6
-19 23 l1 22 -183 0 c-136 0 -184 -3 -188 -12 -5 -10 -7 -10 -12 0 -4 9 -408
12 -1969 12 -1725 0 -1964 -2 -1975 -15 -10 -12 -9 -16 4 -21 9 -3 16 -15 16
-25 0 -17 -2 -17 -37 3 -21 12 -41 26 -44 30 -9 13 -71 29 -63 16 4 -6 0 -14
-7 -19 -11 -8 -8 -14 14 -32 30 -25 34 -37 12 -37 -16 0 -20 -20 -6 -36 4 -5
11 -21 15 -35 4 -20 1 -29 -12 -34 -16 -6 -16 -7 0 -19 14 -11 15 -16 5 -30
-11 -15 -15 -15 -51 4 -44 24 -53 21 -34 -10 11 -18 11 -22 -4 -31 -25 -14
-22 -26 7 -33 28 -7 55 -46 32 -46 -7 0 -19 6 -25 12 -10 10 -15 10 -22 -2 -9
-14 -11 -13 -14 10 0 6 -4 10 -8 10 -5 0 -12 0 -17 0 -15 0 0 -40 21 -54 18
-13 18 -14 -3 -19 -19 -5 -20 -8 -9 -21 7 -9 19 -16 26 -16 8 0 14 -4 14 -9 0
-4 -23 -4 -52 1 -45 8 -54 7 -65 -8 -10 -14 -15 -15 -28 -4 -22 18 -31 4 -12
-18 24 -26 21 -51 -6 -57 -13 -4 -27 -5 -33 -4 -20 3 -35 -1 -30 -10 10 -15
-6 -43 -20 -37 -23 9 -16 -6 18 -41 32 -33 34 -49 5 -37 -9 3 -17 13 -19 22
-2 8 -13 16 -25 17 -18 1 -20 -1 -12 -12 6 -7 9 -20 5 -28 -3 -8 -2 -15 3 -15
5 0 11 -9 14 -20 8 -33 -1 -23 -33 33 -16 29 -38 62 -50 74 -28 31 -110 86
-117 79 -3 -3 1 -8 10 -12 12 -4 15 -14 10 -35 -3 -18 0 -35 8 -45 12 -15 15
-14 24 10 l11 27 19 -21 c16 -18 17 -23 5 -30 -12 -8 -11 -10 5 -10 18 0 18
-2 -5 -20 -22 -17 -23 -22 -12 -40 11 -18 10 -20 -8 -20 -16 0 -20 -7 -20 -35
0 -46 -29 -94 -44 -73 -15 19 -44 29 -51 18 -4 -6 -17 -10 -31 -10 -16 0 -24
-6 -25 -17 0 -14 -2 -13 -9 5 -10 23 -18 26 -44 16 -17 -7 -22 -34 -6 -34 6 0
10 5 10 11 0 5 5 7 10 4 6 -4 5 -12 -4 -21 -17 -16 -10 -48 7 -37 7 4 8 0 4
-11 -6 -14 -3 -17 9 -12 13 5 15 2 11 -14 -3 -11 -2 -18 2 -15 8 4 55 -44 49
-50 -6 -6 -144 119 -199 180 -29 33 -79 86 -111 118 -54 54 -61 57 -93 51 -21
-4 -35 -2 -35 4 0 6 -9 8 -20 5 -26 -7 -26 -23 0 -30 11 -3 27 -21 36 -39 15
-32 44 -47 44 -23 0 5 5 7 11 3 8 -4 7 -9 -2 -14 -9 -6 -4 -15 19 -35 18 -15
42 -40 53 -57 l22 -31 -24 -18 c-25 -19 -11 -26 20 -10 25 14 93 -44 71 -60
-13 -10 -13 -10 1 -6 20 6 42 -28 34 -54 -5 -14 -3 -17 9 -13 11 4 16 1 16
-10 0 -9 -8 -16 -21 -16 -11 0 -18 -4 -14 -10 3 -5 13 -6 23 -3 16 6 16 6 0
-10 -18 -19 -33 -23 -23 -7 3 6 -1 10 -10 10 -11 0 -15 5 -11 16 3 8 2 12 -4
9 -6 -3 -10 -13 -10 -21 0 -17 -16 -19 -26 -3 -3 6 -1 15 6 19 8 5 3 10 -14
14 -14 3 -26 11 -26 17 0 6 -4 7 -10 4 -5 -3 -19 -1 -30 5 -13 7 -20 7 -20 0
0 -5 5 -10 10 -10 6 0 10 -7 10 -15 0 -8 4 -15 10 -15 18 0 55 -47 58 -73 2
-32 -21 -46 -48 -29 -12 7 -21 7 -28 0 -7 -7 -16 -4 -30 10 -14 14 -17 22 -9
26 7 2 3 4 -8 4 -56 -3 -65 1 -65 31 0 17 -6 31 -16 35 -24 9 -26 8 -14 -13
18 -34 11 -37 -14 -8 -14 16 -29 26 -34 23 -5 -3 -18 1 -28 9 -25 19 -44 19
-44 0 0 -17 1 -18 50 -76 16 -20 30 -42 30 -48 0 -6 4 -11 9 -11 5 0 9 -11 9
-24 0 -26 -33 -43 -42 -22 -3 7 -5 7 -5 -1 -2 -23 -30 -14 -68 22 -20 19 -41
31 -46 28 -5 -3 -1 -10 9 -16 11 -6 24 -16 29 -22 6 -7 47 -40 93 -75 45 -34
82 -63 82 -65 0 -5 -30 5 -45 15 -14 8 -115 6 -142 -3 -14 -5 -23 -4 -23 1 0
5 9 12 20 15 11 3 20 11 20 17 0 10 -3 10 -15 0 -8 -6 -20 -8 -26 -4 -9 5 -7
10 7 16 18 8 18 8 -1 5 -12 -1 -20 -10 -20 -21 0 -11 -6 -21 -13 -24 -6 -2
-12 3 -12 11 0 10 -7 13 -20 10 -23 -6 -27 12 -5 21 28 10 16 35 -20 42 -22 4
-37 13 -41 26 -4 15 -12 18 -29 14 -18 -5 -24 -1 -29 17 -7 21 -7 21 -16 2 -7
-16 -9 -16 -9 -4 -1 9 -10 19 -20 22 -10 2 -24 14 -30 26 -10 17 -9 21 5 21
13 0 11 5 -9 20 -14 11 -33 20 -44 20 -17 -1 -17 -2 2 -16 17 -13 18 -16 5
-24 -8 -5 -19 -10 -25 -10 -5 0 -4 4 4 9 10 6 10 10 1 16 -14 9 -23 0 -27 -28
-2 -12 -8 -23 -13 -25 -18 -6 -10 -22 10 -22 12 0 20 -6 18 -13 -3 -13 51 -67
66 -67 14 0 86 -74 86 -87 0 -8 14 -28 30 -45 17 -16 30 -34 30 -38 0 -5 7 -7
15 -4 9 4 15 0 15 -10 0 -9 5 -16 10 -16 6 0 10 -6 9 -12 -1 -7 1 -25 5 -40 7
-22 14 -28 37 -28 28 0 43 -19 17 -21 -37 -2 -80 -19 -49 -19 7 0 9 -4 6 -10
-3 -5 0 -10 9 -10 8 0 17 6 19 13 4 9 6 9 6 0 1 -12 -37 -53 -49 -53 -3 0 -17
10 -30 22 -16 15 -25 18 -28 10 -2 -7 -11 -12 -20 -12 -15 0 -15 2 -2 11 12 8
8 9 -15 7 -17 -1 -36 1 -43 6 -25 15 -2 22 50 16 54 -8 72 -5 63 9 -4 8 -102
26 -119 22 -5 -1 -6 5 -3 12 4 11 0 13 -16 10 -20 -4 -20 -3 -4 7 9 6 14 16
11 22 -7 11 44 5 84 -9 12 -4 14 -3 7 5 -13 13 -155 62 -182 62 -11 0 -23 3
-27 8 -4 4 -11 7 -14 7 -4 0 -34 10 -67 22 -33 11 -79 27 -102 34 -24 6 -43
17 -43 22 0 9 17 8 140 -9 32 -5 42 -3 35 4 -6 6 -19 13 -30 15 -68 14 -87 22
-96 38 -6 11 -21 19 -37 20 -27 0 -27 0 -3 10 14 6 21 15 18 24 -4 8 -1 12 6
10 28 -11 39 11 27 53 -12 47 -30 64 -30 30 -1 -39 -35 -70 -84 -75 -24 -3
-53 0 -65 6 -14 8 -21 8 -21 1 0 -5 5 -10 10 -10 17 0 11 -26 -11 -46 -12 -10
-25 -29 -30 -41 -5 -15 -14 -21 -24 -17 -11 5 -14 2 -9 -10 3 -9 11 -16 17
-16 6 0 8 -3 4 -6 -9 -10 25 -43 39 -37 8 3 14 0 14 -6 0 -6 -6 -11 -12 -11
-9 0 -8 -3 2 -10 9 -5 19 -5 27 2 8 7 13 7 13 0 0 -5 10 -12 21 -15 13 -4 19
-11 16 -19 -3 -8 17 -36 44 -63 27 -27 49 -45 49 -39 0 5 -6 16 -12 23 -11 10
-7 17 15 37 36 31 96 33 122 4 10 -11 21 -17 26 -15 4 3 18 -15 30 -40 12 -25
26 -45 31 -45 4 0 8 -5 8 -11 0 -6 8 -23 18 -37 10 -15 26 -47 36 -72 10 -25
26 -64 37 -88 26 -59 24 -84 -8 -99 -28 -13 -42 -5 -43 24 0 7 -6 10 -14 7
-14 -5 -26 31 -29 93 -3 38 -12 50 -29 35 -10 -8 -13 -4 -15 15 -1 20 1 23 9
12 7 -10 9 -8 5 9 -3 13 0 22 6 22 7 0 -1 11 -17 25 -16 14 -25 25 -19 25 5 0
15 11 20 23 9 19 8 24 -3 24 -7 0 -11 -4 -8 -9 3 -4 1 -8 -4 -8 -14 0 -20 58
-8 70 5 5 7 12 4 15 -3 4 -22 -10 -43 -30 -32 -33 -40 -36 -71 -31 -21 4 -34
3 -34 -4 0 -5 3 -9 7 -9 21 3 34 -2 28 -11 -4 -6 -10 -8 -15 -5 -10 6 -22 -23
-15 -35 10 -15 -14 -21 -34 -8 -30 19 -33 7 -12 -57 19 -58 18 -89 -2 -82 -6
2 -15 17 -19 33 -11 43 -42 68 -137 108 -46 20 -119 54 -163 77 -55 27 -84 37
-92 30 -8 -7 -16 -4 -25 10 -7 12 -15 19 -17 16 -9 -9 28 -57 43 -57 8 0 28
-13 44 -29 29 -29 29 -30 7 -37 -21 -6 -21 -7 -3 -20 15 -11 16 -14 3 -14 -9
0 -23 -12 -33 -26 -10 -15 -22 -23 -31 -20 -8 3 -14 -1 -14 -10 0 -8 4 -13 9
-9 6 3 9 -11 8 -33 -1 -32 -3 -37 -14 -26 -7 7 -13 17 -13 23 0 13 -17 15 -24
3 -8 -13 32 -72 49 -72 8 0 15 5 15 10 0 6 14 10 31 10 24 0 30 -4 25 -15 -3
-10 5 -20 25 -31 22 -11 28 -19 20 -28 -7 -8 -4 -15 10 -24 16 -10 20 -10 25
3 4 8 10 15 16 15 5 0 7 -4 3 -9 -3 -6 3 -14 12 -20 10 -5 15 -13 11 -17 -4
-4 -14 -1 -22 5 -15 13 -32 -1 -22 -18 4 -5 1 -11 -5 -13 -13 -4 6 -58 21 -58
5 0 10 -4 10 -10 0 -5 -7 -10 -15 -10 -8 0 -41 40 -72 90 -32 49 -64 90 -71
90 -9 0 -11 -7 -7 -20 4 -13 2 -20 -6 -20 -9 0 -8 -4 3 -12 16 -13 31 -81 16
-72 -13 8 -9 -16 7 -44 20 -36 39 -85 36 -96 -1 -4 10 -18 24 -30 32 -28 32
-46 0 -46 -16 0 -25 -6 -25 -16 0 -9 5 -12 12 -8 7 5 8 3 4 -5 -5 -7 -11 -10
-14 -7 -3 3 -12 0 -20 -7 -13 -10 -14 -8 -8 16 5 20 3 27 -8 27 -8 0 -17 14
-21 30 -4 17 -10 28 -15 25 -4 -3 -11 2 -14 11 -9 23 -8 27 8 21 10 -4 12 0 8
15 -2 11 -11 22 -18 25 -7 2 -10 11 -7 19 3 8 -5 31 -19 52 -13 20 -32 54 -43
74 -11 22 -23 34 -28 29 -5 -5 -1 -21 11 -38 11 -15 23 -39 27 -53 5 -19 4
-22 -4 -10 -17 24 -14 -9 4 -43 8 -15 10 -25 6 -22 -5 2 -5 -10 -1 -28 29
-113 45 -156 71 -191 16 -22 29 -46 29 -53 0 -7 9 -22 19 -32 19 -19 19 -19
-17 -16 -33 3 -42 -2 -83 -47 -25 -27 -52 -68 -59 -91 -18 -56 -26 -64 -34
-33 -4 16 -11 23 -20 20 -11 -4 -12 -13 -5 -37 5 -18 7 -55 6 -84 -2 -48 -3
-50 -22 -40 -18 9 -19 9 -6 -6 7 -10 10 -17 5 -17 -20 0 -32 17 -45 60 -19 68
-31 76 -57 40 -18 -24 -19 -30 -7 -30 20 0 19 -10 -2 -26 -17 -12 -16 -13 5
-14 12 0 22 -4 22 -10 0 -5 -7 -10 -15 -10 -10 0 -15 -9 -14 -27 1 -16 -2 -40
-6 -56 -6 -23 -5 -26 9 -21 14 6 16 2 10 -22 -4 -16 -12 -32 -18 -36 -8 -5 -7
-14 2 -29 16 -25 10 -36 -8 -14 -8 9 -14 61 -17 142 -3 71 -7 130 -9 132 -9
10 -14 -10 -17 -73 -3 -39 -9 -71 -16 -76 -9 -5 -6 -9 8 -13 18 -4 21 -13 21
-67 l0 -62 -32 7 c-35 8 -62 21 -90 44 -16 12 -18 12 -19 -5 0 -14 -2 -15 -6
-4 -13 32 -60 69 -82 63 -26 -7 -27 -18 -1 -45 11 -12 19 -27 18 -32 -2 -17
13 -48 43 -86 19 -26 27 -46 26 -73 -1 -22 5 -42 12 -47 8 -4 14 -22 15 -39 1
-23 6 -31 21 -32 18 -1 18 -2 2 -6 -13 -3 -17 -11 -14 -24 6 -23 -8 -25 -17
-2 -6 15 -8 14 -20 -2 -7 -10 -20 -16 -28 -12 -9 3 -21 0 -27 -6 -9 -9 -14 -9
-20 1 -10 16 -81 34 -81 21 0 -5 -4 -9 -10 -9 -5 0 -7 6 -4 14 3 8 -3 16 -15
19 -17 4 -19 2 -12 -12 5 -9 19 -25 30 -35 12 -11 21 -23 21 -28 0 -5 -7 -2
-16 6 -8 9 -19 16 -23 16 -5 0 -21 12 -36 26 -15 14 -34 23 -42 19 -9 -3 -22
3 -29 12 -12 17 -13 16 -14 -7 -1 -16 -4 -19 -7 -10 -10 25 -27 31 -40 13 -11
-15 -13 -14 -20 3 -4 10 -24 37 -44 59 -28 29 -37 34 -34 20 2 -11 4 -24 4
-28 1 -5 5 -6 10 -3 5 3 11 -3 14 -14 3 -13 0 -20 -9 -20 -12 0 -12 -4 -2 -22
7 -13 17 -26 23 -30 5 -4 6 -11 1 -15 -5 -4 -11 -2 -13 5 -8 20 -26 13 -20 -8
4 -16 2 -18 -10 -11 -9 4 -24 6 -34 4 -17 -5 -17 -6 -1 -32 9 -14 25 -35 34
-45 24 -26 7 -46 -22 -28 -16 10 -20 10 -20 -2 0 -8 -3 -21 -6 -30 -4 -11 0
-16 12 -16 16 0 17 -2 4 -11 -13 -9 -13 -10 0 -6 8 2 15 9 15 14 0 6 3 15 8
19 4 4 7 0 7 -9 0 -22 18 -31 35 -17 20 17 19 5 -2 -20 -10 -11 -25 -20 -35
-20 -16 0 -16 -3 4 -25 12 -14 28 -25 35 -25 7 0 13 -4 13 -10 0 -5 1 -13 3
-17 1 -4 -11 -10 -28 -13 -21 -4 -31 -12 -33 -27 -2 -15 -8 -20 -18 -16 -8 3
-14 2 -12 -3 5 -16 -28 -13 -64 7 -26 13 -38 11 -32 -6 7 -18 4 -18 -32 -5
-25 10 -26 9 -13 -6 24 -29 92 -67 174 -96 44 -16 92 -34 108 -40 15 -6 27
-17 27 -28 0 -13 -7 -17 -27 -16 -16 1 -33 5 -39 8 -6 4 -14 5 -17 1 -8 -8 19
-60 35 -66 10 -4 10 -6 0 -6 -7 -1 -27 6 -43 15 -38 19 -48 12 -14 -10 20 -13
36 -46 21 -46 -5 0 -45 22 -86 48 -19 12 -43 22 -53 22 -10 0 -16 4 -13 9 4 5
-3 7 -15 4 -13 -4 -17 -8 -9 -13 17 -10 -12 -20 -39 -13 -13 3 -21 1 -21 -6 0
-7 5 -9 10 -6 5 3 10 0 10 -7 0 -8 16 -20 35 -27 19 -7 35 -19 35 -27 0 -8 5
-14 12 -14 6 0 9 -2 6 -5 -8 -9 -38 6 -32 16 3 5 -10 6 -28 3 -24 -4 -29 -3
-18 5 8 5 11 13 8 16 -11 11 -28 -5 -28 -25 0 -10 -5 -20 -10 -22 -10 -3 -17
-34 -19 -77 -2 -29 -41 28 -41 59 0 16 -4 30 -10 30 -10 0 -15 -27 -12 -62 1
-11 -5 -18 -15 -18 -9 0 -13 3 -10 7 11 11 -46 34 -93 38 -45 4 -45 4 -18 -11
15 -8 38 -30 51 -49 13 -20 42 -54 63 -77 21 -24 38 -46 37 -50 -2 -4 3 -5 10
-3 14 6 41 -31 32 -45 -8 -13 -66 -40 -86 -40 -10 0 -24 7 -32 15 -8 8 -17 12
-20 8 -3 -3 -20 5 -38 17 l-31 23 7 -24 c4 -13 13 -27 19 -31 6 -4 7 -8 2 -8
-5 0 -4 -6 2 -13 9 -10 5 -13 -16 -11 -15 2 -38 6 -52 10 -24 7 -25 7 -7 -13
17 -20 17 -20 -10 -16 l-28 5 25 -21 c17 -14 38 -19 65 -18 35 2 42 -2 62 -33
12 -19 27 -40 33 -47 14 -17 13 -28 -5 -43 -20 -17 -152 -18 -182 -2 -27 15
-37 2 -28 -38 5 -24 3 -30 -11 -30 -16 0 -16 -1 1 -20 10 -11 14 -20 9 -20 -5
0 2 -9 16 -20 20 -16 22 -20 8 -20 -21 0 -23 -11 -6 -28 10 -10 10 -15 -2 -22
-12 -8 -11 -10 5 -11 l20 0 -20 -9 c-34 -15 162 -11 260 5 94 15 182 42 231
69 27 16 27 16 4 11 -22 -5 -23 -4 -7 5 10 7 24 9 32 7 7 -3 47 5 89 19 72 23
278 64 319 64 16 0 19 -5 13 -31 -6 -30 -5 -31 22 -23 15 4 38 7 51 7 17 -1
20 1 10 7 -11 7 -9 10 6 16 11 4 25 10 30 12 6 3 3 -3 -5 -13 -14 -17 -13 -18
15 -12 17 3 39 9 50 12 16 6 17 5 5 -4 -12 -9 -10 -10 10 -7 14 3 30 5 35 6 6
1 1 5 -10 10 -18 8 -18 9 -2 9 10 1 28 -4 39 -10 16 -8 19 -8 13 1 -6 9 -2 9
14 1 16 -9 21 -9 21 0 0 11 16 9 54 -7 14 -5 17 -4 11 5 -6 10 -3 11 12 3 10
-6 25 -7 33 -3 8 5 28 11 43 15 33 8 28 -10 -7 -24 -16 -7 -11 -8 24 -8 71 1
80 -1 81 -19 0 -11 3 -13 6 -5 6 15 43 16 43 1 0 -6 7 -8 16 -5 8 3 21 0 28
-7 14 -15 71 -159 81 -207 4 -19 11 -39 15 -45 4 -5 11 -21 14 -35 7 -24 6
-24 -9 2 -19 33 -48 50 -70 42 -13 -5 -15 -14 -10 -43 4 -20 11 -40 16 -46 5
-5 9 -14 9 -19 0 -6 -12 7 -27 29 -14 22 -31 43 -37 47 -13 9 -28 -1 -21 -13
11 -17 -15 -9 -35 11 -18 18 -20 18 -21 3 0 -16 -1 -16 -8 1 -5 14 -10 16 -15
8 -4 -7 8 -43 28 -82 19 -39 33 -70 31 -70 -2 0 -21 25 -42 55 -22 30 -43 52
-47 48 -4 -5 -15 1 -23 12 -16 20 -15 16 3 -30 4 -11 0 -15 -15 -15 -12 0 -21
6 -21 12 0 7 -7 2 -16 -11 -15 -21 -20 -22 -108 -17 -182 11 -215 15 -234 25
-37 20 -240 10 -372 -18 -157 -33 -338 -51 -517 -51 -231 1 -313 20 -605 141
-65 27 -123 49 -128 49 -7 0 -10 -17 -7 -44 5 -62 -13 -51 -59 37 -49 94 -78
132 -129 167 -77 53 -225 79 -330 57 l-40 -9 19 21 c67 74 215 117 364 105 89
-6 97 -9 165 -53 85 -55 173 -96 265 -122 71 -20 94 -24 77 -11 -12 8 -61 116
-67 147 -2 11 -9 19 -14 18 -6 -1 -17 15 -26 35 -36 89 -51 160 -53 252 0 52
-4 102 -8 110 -14 33 -24 140 -13 140 8 0 8 2 0 8 -6 4 -16 75 -23 169 -11
155 -10 180 14 518 2 39 7 113 10 165 10 166 37 320 84 480 11 36 26 96 35
133 8 37 22 82 30 100 9 18 24 57 35 87 10 30 42 108 70 173 28 65 51 124 51
130 0 28 245 496 270 517 4 3 19 29 35 58 16 28 61 93 102 144 40 51 73 94 73
97 0 4 17 24 36 46 20 22 63 72 97 110 86 98 350 358 422 416 33 27 67 55 76
62 9 8 38 29 65 47 27 19 76 55 109 81 33 25 80 59 105 74 25 15 47 31 50 35
3 4 19 14 35 22 17 9 82 45 145 82 63 36 149 80 190 97 41 18 91 40 110 50 34
19 3 19 -1583 19 l-1617 0 0 -3115z m5150 3075 c0 -5 -7 -10 -15 -10 -8 0 -15
5 -15 10 0 6 7 10 15 10 8 0 15 -4 15 -10z m-3322 -137 c2 -8 -5 -13 -17 -13
-12 0 -21 6 -21 16 0 18 31 15 38 -3z m7920 -6 c4 -20 -25 -34 -40 -19 -15 15
-1 44 19 40 10 -2 19 -11 21 -21z m-8133 -166 c3 -5 1 -12 -5 -16 -5 -3 -10 1
-10 9 0 18 6 21 15 7z m-335 -16 c0 -8 -4 -15 -10 -15 -5 0 -10 7 -10 15 0 8
5 15 10 15 6 0 10 -7 10 -15z m448 -56 c-2 -6 -8 -10 -13 -10 -5 0 -11 4 -13
10 -2 6 4 11 13 11 9 0 15 -5 13 -11z m7306 -15 c6 -16 -9 -44 -24 -44 -12 0
-20 28 -14 45 8 20 30 19 38 -1z m-1016 -31 c-4 -22 -22 -20 -26 1 -2 10 3 16
13 16 10 0 15 -7 13 -17z m876 2 c8 -21 -3 -45 -20 -45 -18 0 -28 24 -20 45 3
8 12 15 20 15 7 0 16 -7 20 -15z m776 -30 c13 -16 6 -35 -15 -35 -18 0 -28 17
-21 35 7 19 20 19 36 0z m-8040 -35 c0 -5 -5 -10 -11 -10 -5 0 -7 5 -4 10 3 6
8 10 11 10 2 0 4 -4 4 -10z m-1020 -19 c0 -19 -23 -35 -34 -24 -14 15 -5 43
14 43 13 0 20 -7 20 -19z m4030 -21 c0 -5 -4 -10 -10 -10 -5 0 -10 5 -10 10 0
6 5 10 10 10 6 0 10 -4 10 -10z m950 -20 c0 -5 -4 -10 -10 -10 -5 0 -10 5 -10
10 0 6 5 10 10 10 6 0 10 -4 10 -10z m108 -62 c4 -19 -20 -29 -38 -18 -11 7
-12 11 0 25 15 18 34 15 38 -7z m-4840 -6 c3 -9 -2 -13 -14 -10 -9 1 -19 9
-22 16 -3 9 2 13 14 10 9 -1 19 -9 22 -16z m3306 -8 c5 -14 4 -15 -9 -4 -17
14 -19 20 -6 20 5 0 12 -7 15 -16z m-3161 -49 c4 -8 3 -16 -1 -19 -13 -8 -35
11 -28 23 10 15 23 14 29 -4z m-398 -15 c3 -5 1 -10 -4 -10 -6 0 -11 5 -11 10
0 6 2 10 4 10 3 0 8 -4 11 -10z m7636 -323 c-13 -13 -26 -3 -16 12 3 6 11 8
17 5 6 -4 6 -10 -1 -17z m883 -44 c9 -22 -20 -51 -35 -36 -14 14 -2 53 16 53
7 0 16 -8 19 -17z m-674 -22 c0 -10 -30 -24 -37 -17 -3 3 -2 9 2 15 8 13 35
15 35 2z m-4210 -61 c9 -17 8 -19 -12 -11 -26 9 -36 31 -14 31 8 0 20 -9 26
-20z m148 -8 c15 -20 16 -74 0 -90 -20 -20 -59 -14 -100 14 -21 15 -38 29 -38
33 1 3 9 16 19 28 36 43 91 50 119 15z m-3308 -64 c0 -16 -3 -19 -11 -11 -6 6
-8 16 -5 22 11 17 16 13 16 -11z m-572 -15 c4 -24 -26 -40 -34 -18 -8 21 3 47
19 43 6 -3 13 -14 15 -25z m3282 -3 c0 -5 -7 -7 -15 -4 -8 4 -15 8 -15 10 0 2
7 4 15 4 8 0 15 -4 15 -10z m670 -16 c0 -2 -7 -4 -15 -4 -8 0 -15 4 -15 10 0
5 7 7 15 4 8 -4 15 -8 15 -10z m-596 -78 c-10 -8 -21 -12 -24 -10 -5 6 21 24
34 24 6 0 1 -6 -10 -14z m5736 -20 c0 -8 -7 -16 -15 -20 -10 -4 -15 1 -15 14
0 11 7 20 15 20 8 0 15 -6 15 -14z m-5290 -21 c7 -9 10 -18 6 -22 -3 -3 -6 -1
-6 5 0 7 -7 12 -15 12 -8 0 -15 5 -15 10 0 15 16 12 30 -5z m1309 -1 c38 -8
42 -26 4 -20 -16 2 -41 5 -58 5 -23 1 -27 4 -15 11 18 12 27 12 69 4z m75 -36
c-8 -12 26 -25 141 -53 61 -15 128 -34 150 -42 22 -8 73 -18 113 -23 41 -6 90
-19 110 -30 21 -11 120 -59 222 -108 168 -81 259 -136 246 -150 -3 -3 -11 0
-18 5 -27 21 -125 49 -170 48 -26 -1 -43 2 -37 6 8 5 8 8 0 13 -6 4 -11 2 -11
-3 0 -6 -7 -11 -15 -11 -8 0 -15 5 -15 10 0 6 5 10 11 10 5 0 7 5 4 10 -11 18
-23 10 -21 -14 2 -18 -1 -22 -16 -18 -10 2 -18 2 -18 -2 0 -10 60 -37 69 -31
13 8 85 15 77 8 -3 -3 -16 -7 -29 -9 -12 -1 -25 -3 -29 -3 -11 -1 26 -37 51
-51 12 -6 21 -15 21 -21 0 -14 26 -39 34 -32 3 3 3 17 -1 31 -4 18 -2 23 6 18
6 -4 9 -12 6 -17 -4 -5 -2 -9 4 -9 6 0 7 -7 4 -17 -4 -11 -3 -14 6 -9 9 6 10
1 5 -18 -4 -16 -2 -26 5 -26 5 0 27 -17 48 -38 47 -47 83 -68 92 -54 4 7 12 8
21 2 10 -7 11 -10 3 -10 -7 0 -13 -4 -13 -10 0 -5 5 -10 11 -10 13 0 34 -20
42 -40 4 -12 6 -11 6 3 1 11 9 17 26 17 18 0 50 -24 115 -89 50 -48 90 -90 90
-93 0 -3 19 -25 43 -49 37 -39 57 -64 92 -117 6 -8 49 -73 98 -144 48 -70 87
-130 87 -133 0 -2 20 -38 45 -78 25 -41 45 -80 45 -86 0 -6 5 -11 10 -11 6 0
10 -5 10 -12 0 -6 6 -19 14 -27 26 -29 176 -334 210 -426 18 -49 53 -148 77
-218 39 -116 45 -128 64 -122 49 15 143 28 158 22 9 -3 17 -14 17 -23 0 -16
-1 -16 -19 0 -14 13 -28 16 -55 10 -51 -9 -58 -29 -45 -116 6 -40 12 -91 14
-113 1 -22 5 -56 8 -75 9 -47 -1 -19 -48 133 -36 119 -36 119 -63 111 -15 -4
-44 -9 -65 -10 -22 -1 -58 -5 -81 -8 l-42 -7 -69 146 c-37 80 -82 167 -99 193
-17 26 -47 74 -65 107 -81 144 -258 352 -417 490 -345 299 -725 456 -1294 535
-128 18 -498 24 -636 11 -65 -7 -166 -16 -224 -22 -231 -21 -550 -105 -762
-200 -250 -111 -437 -252 -692 -519 -193 -202 -266 -301 -368 -501 -33 -66
-62 -118 -64 -116 -2 2 2 17 10 33 44 89 84 184 77 184 -4 0 -15 -15 -24 -32
l-17 -33 6 35 c4 26 3 31 -5 20 -16 -23 -13 -3 5 31 11 22 20 29 32 25 15 -5
15 -4 -1 8 -16 12 -16 14 -2 20 11 4 14 13 10 25 -4 13 1 24 15 34 11 7 17 16
14 20 -7 7 30 108 51 141 9 13 22 54 30 91 8 38 23 81 35 97 11 15 23 42 27
60 3 18 9 35 12 38 3 3 12 23 20 45 8 22 21 45 28 51 8 5 16 22 16 37 1 15 7
27 13 27 6 0 23 29 39 65 15 36 31 65 35 65 4 0 11 11 14 25 4 14 18 35 31 47
14 12 25 27 25 34 0 7 6 17 13 21 7 4 20 20 29 34 38 60 189 214 272 279 32
24 65 55 73 67 9 13 26 26 39 29 13 3 24 12 24 20 0 8 6 14 14 14 8 0 16 7 20
15 3 8 9 14 13 13 5 -2 31 14 58 35 63 48 203 137 215 137 5 0 15 6 22 13 27
24 123 77 141 77 5 0 37 13 71 29 33 16 77 34 96 40 19 5 57 17 84 26 27 8 58
15 68 15 10 0 26 4 36 10 18 10 191 55 277 72 41 8 135 18 255 29 8 0 26 -2
40 -6 20 -5 22 -5 10 5 -12 9 -9 10 15 5 45 -11 174 -14 150 -5 -19 8 -19 9 3
9 12 1 22 -3 22 -8 0 -13 51 -30 95 -32 51 -2 105 -18 124 -37 10 -9 26 -12
48 -9 19 3 46 1 61 -5 15 -7 43 -13 62 -14 19 -1 37 -3 40 -4 3 -1 19 -2 35
-1 l30 0 -30 -14 -30 -15 46 2 c32 2 45 -1 42 -9 -3 -8 8 -10 36 -6 37 5 41 3
51 -22 8 -20 15 -26 30 -22 11 3 23 1 26 -5 6 -9 25 -18 72 -32 18 -6 22 -4
22 13 0 13 6 21 18 21 14 0 15 -2 2 -10 -8 -5 -11 -12 -8 -15 4 -4 17 0 29 9
l22 15 -27 11 c-15 5 -33 10 -39 10 -7 0 -25 7 -42 16 -54 28 -228 85 -379
124 -320 83 -645 106 -889 65 -103 -18 -365 -83 -502 -125 -49 -15 -135 -40
-190 -55 -55 -15 -117 -36 -139 -47 -21 -11 -35 -15 -31 -9 14 24 111 62 379
151 315 103 398 124 576 141 142 13 434 6 571 -14 l86 -13 -5 25 c-4 25 -4 25
11 6 8 -11 13 -23 11 -27z m-334 -48 c0 -5 13 -7 32 -3 22 4 29 3 24 -5 -10
-17 -48 -15 -72 3 -17 13 -17 14 -1 15 9 0 17 -4 17 -10z m107 4 c-3 -3 -12
-4 -19 -1 -8 3 -5 6 6 6 11 1 17 -2 13 -5z m-274 -21 c-7 -2 -19 -2 -25 0 -7
3 -2 5 12 5 14 0 19 -2 13 -5z m-1113 -18 c0 -8 -2 -15 -4 -15 -2 0 -6 7 -10
15 -3 8 -1 15 4 15 6 0 10 -7 10 -15z m148 -1 l23 -16 -20 -15 c-19 -13 -23
-12 -38 3 -13 13 -14 19 -5 22 7 2 10 8 6 13 -8 14 9 11 34 -7z m-61 0 c-3 -3
-12 -4 -19 -1 -8 3 -5 6 6 6 11 1 17 -2 13 -5z m-294 -192 c-14 -2 -32 -10
-40 -18 -8 -8 -22 -14 -31 -14 -13 0 -13 2 4 15 19 14 18 14 -3 15 -16 0 -23
6 -23 19 0 19 25 35 40 26 5 -3 12 0 15 6 5 6 18 0 35 -18 l29 -28 -26 -3z
m-376 26 c-3 -8 -6 -5 -6 6 -1 11 2 17 5 13 3 -3 4 -12 1 -19z m6471 -1 c3
-14 -1 -18 -20 -15 -12 2 -24 11 -26 21 -3 14 1 18 20 15 12 -2 24 -11 26 -21z
m-6538 -9 c0 -16 -3 -19 -11 -11 -6 6 -8 16 -5 22 11 17 16 13 16 -11z m-181
-26 c27 -26 33 -63 13 -89 -33 -41 -82 4 -82 75 0 22 5 28 25 30 15 1 34 -6
44 -16z m-2692 -57 c-6 -17 -37 -18 -43 -1 -3 9 0 23 7 32 12 14 14 14 26 -2
7 -10 12 -23 10 -29z m5883 -25 c0 -5 -4 -10 -10 -10 -5 0 -10 5 -10 10 0 6 5
10 10 10 6 0 10 -4 10 -10z m3322 -35 c0 -5 -5 -11 -11 -13 -6 -2 -11 4 -11
13 0 9 5 15 11 13 6 -2 11 -8 11 -13z m-9145 -81 c7 -19 -20 -49 -36 -40 -15
10 -14 43 2 49 21 9 27 7 34 -9z m-439 -6 c29 -29 4 -85 -30 -67 -28 15 -18
79 12 79 3 0 11 -5 18 -12z m9822 -83 c0 -8 -7 -15 -15 -15 -16 0 -20 12 -8
23 11 12 23 8 23 -8z m-6684 -15 c0 -11 -4 -20 -8 -20 -10 0 -11 24 -1 33 9 9
9 10 9 -13z m45 -24 c15 9 46 -5 46 -21 0 -8 -34 -47 -76 -86 -65 -63 -76 -69
-82 -53 -12 30 -10 62 4 71 6 4 19 21 27 37 8 16 22 31 32 33 9 3 19 15 23 26
6 19 8 20 12 4 2 -9 9 -15 14 -11z m-521 -71 c0 -8 -2 -15 -4 -15 -2 0 -6 7
-10 15 -3 8 -1 15 4 15 6 0 10 -7 10 -15z m6808 -96 c-2 -6 -8 -10 -13 -10 -5
0 -11 4 -13 10 -2 6 4 11 13 11 9 0 15 -5 13 -11z m-6708 -140 c0 -6 -4 -7
-10 -4 -5 3 -10 11 -10 16 0 6 5 7 10 4 6 -3 10 -11 10 -16z m110 11 c0 -5 -4
-10 -10 -10 -5 0 -10 5 -10 10 0 6 5 10 10 10 6 0 10 -4 10 -10z m6150 -15 c0
-8 -4 -15 -10 -15 -5 0 -10 7 -10 15 0 8 5 15 10 15 6 0 10 -7 10 -15z m-8860
-24 c0 -11 -5 -23 -11 -27 -15 -9 -33 12 -26 30 9 23 37 20 37 -3z m2587 -59
c-1 -20 -8 -27 -25 -28 l-23 -2 21 18 c13 12 18 24 13 35 -4 12 -3 16 5 11 6
-4 10 -19 9 -34z m172 -29 c-17 -32 -35 -62 -39 -68 -4 -5 -10 -23 -14 -38 -7
-30 -21 -61 -146 -327 -43 -91 -94 -208 -115 -260 -20 -52 -43 -108 -50 -125
-33 -73 -65 -170 -65 -194 1 -35 47 -94 111 -142 60 -44 54 -42 82 -28 21 9
21 9 4 -5 -18 -14 -17 -15 13 -31 18 -9 30 -19 27 -22 -8 -8 -85 41 -193 122
-54 41 -102 75 -106 75 -31 0 -77 -105 -143 -325 -55 -183 -76 -289 -84 -415
l-6 -115 -8 80 c-12 131 16 271 112 580 51 160 78 205 135 216 14 3 24 26 41
96 13 50 28 99 33 110 6 10 31 74 57 143 85 223 154 364 291 590 22 36 48 82
59 103 11 20 23 37 27 37 4 0 -6 -26 -23 -57z m-283 -71 c-18 -16 -18 -16 -6
6 6 13 14 21 18 18 3 -4 -2 -14 -12 -24z m-2546 -1 c0 -12 -26 -32 -33 -25 -9
10 4 34 19 34 8 0 14 -4 14 -9z m5716 -90 c39 -10 102 -33 140 -51 38 -18 103
-45 145 -60 93 -35 283 -129 275 -137 -3 -3 -17 2 -31 11 -76 50 -465 193
-617 226 -32 7 -55 17 -52 22 8 13 64 9 140 -11z m-1176 -12 c11 -8 9 -9 -10
-3 -22 6 -23 5 -11 -10 12 -14 10 -16 -17 -16 -17 0 -34 -5 -38 -12 -5 -8 0
-9 17 -4 13 4 157 12 319 18 219 9 341 9 480 0 220 -13 287 -25 488 -87 99
-30 158 -45 179 -45 12 0 23 -4 25 -8 2 -4 22 -17 45 -29 23 -11 40 -17 38
-12 -3 4 12 -1 32 -11 153 -76 227 -110 239 -110 8 0 14 -4 14 -9 0 -5 57 -43
128 -84 151 -90 365 -258 442 -348 l55 -64 -55 47 c-223 190 -239 202 -415
308 -442 265 -981 409 -1531 410 -274 0 -497 -26 -744 -86 -269 -66 -535 -160
-735 -261 -135 -68 -174 -95 -270 -183 -72 -68 -102 -89 -74 -52 50 63 285
249 404 319 279 163 617 289 885 328 47 7 87 13 90 14 3 0 12 -4 20 -10z
m-4760 -130 c0 -5 -7 -9 -15 -9 -15 0 -20 12 -9 23 8 8 24 -1 24 -14z m6336
-87 c-4 -3 -14 2 -24 12 -16 18 -16 18 6 6 13 -6 21 -14 18 -18z m3017 -64 c6
-18 -11 -48 -28 -48 -18 0 -25 21 -13 43 10 20 34 23 41 5z m-6970 -168 c4
-17 2 -18 -14 -9 -20 10 -24 21 -13 32 10 10 21 0 27 -23z m7761 21 c9 -14 -4
-41 -19 -41 -21 0 -28 19 -15 35 14 17 26 19 34 6z m-6344 -36 c0 -3 -15 -11
-34 -19 -48 -20 -265 -159 -359 -229 -107 -81 -261 -238 -326 -333 -30 -43
-76 -119 -103 -169 -58 -109 -64 -106 -8 4 100 200 213 338 387 474 88 70 286
200 371 244 65 34 72 37 72 28z m-1836 -120 c3 -8 1 -15 -3 -15 -5 0 -11 7
-15 15 -3 8 -1 15 3 15 5 0 11 -7 15 -15z m56 5 c0 -5 -4 -10 -10 -10 -5 0
-10 5 -10 10 0 6 5 10 10 10 6 0 10 -4 10 -10z m0 -50 c0 -5 -7 -10 -15 -10
-8 0 -15 5 -15 10 0 6 7 10 15 10 8 0 15 -4 15 -10z m3406 -147 c11 -6 53 -16
94 -22 100 -17 208 -49 214 -64 2 -7 5 13 7 43 2 39 3 45 6 20 2 -19 6 -51 9
-70 5 -30 8 -32 14 -15 5 11 9 14 9 7 1 -9 6 -10 19 -4 24 13 102 12 102 -1 0
-6 7 -2 15 9 9 10 14 13 13 5 -3 -13 12 -20 62 -26 14 -2 25 -4 25 -5 0 -2 32
-10 68 -17 15 -3 27 -9 27 -14 0 -5 11 -9 25 -9 14 0 25 -5 25 -11 0 -6 7 -9
15 -5 11 4 15 -2 15 -20 0 -22 2 -23 21 -13 20 10 21 9 14 -23 l-7 -33 21 23
c22 23 37 30 26 12 -7 -11 18 -40 34 -40 6 0 11 -17 11 -37 0 -29 3 -34 10
-23 8 12 12 13 19 1 7 -11 13 -11 32 -1 24 13 24 13 5 -9 -22 -24 -13 -29 10
-6 22 22 33 18 27 -7 -3 -17 -2 -19 5 -9 8 11 12 10 22 -8 9 -18 14 -20 26
-10 21 17 26 6 14 -27 -19 -48 -29 -118 -19 -130 5 -6 5 -24 -1 -42 -5 -18 -6
-32 -2 -32 14 1 42 28 42 41 0 8 7 4 16 -9 12 -17 14 -35 9 -72 -7 -53 0 -65
15 -27 7 18 9 19 9 4 1 -10 8 -25 16 -33 11 -11 12 -20 5 -34 -13 -24 -13 -70
0 -70 6 0 11 10 11 23 1 18 2 19 6 4 4 -14 11 -17 28 -13 13 3 27 2 30 -4 9
-15 25 -12 25 5 0 8 5 15 10 15 6 0 4 -15 -5 -36 -17 -41 -20 -88 -5 -79 5 3
5 -6 -1 -24 -9 -24 -7 -36 7 -61 10 -16 23 -30 29 -30 5 0 19 -19 30 -42 15
-32 21 -37 23 -22 7 34 19 36 25 5 4 -18 13 -31 22 -31 12 0 15 -16 15 -91 0
-57 -4 -88 -10 -84 -5 3 -10 19 -10 35 0 16 -4 32 -10 35 -6 4 -10 -5 -10 -19
0 -19 -5 -26 -20 -26 -11 0 -20 5 -20 10 0 18 -18 10 -23 -10 -3 -13 -14 -20
-29 -20 -13 0 -30 -6 -37 -12 -11 -10 -14 -10 -18 -1 -4 10 -10 9 -26 -2 -30
-21 -34 -19 -29 15 3 18 0 30 -7 30 -6 0 -11 -7 -11 -15 0 -17 -16 -21 -22 -5
-2 6 -15 -1 -31 -15 -15 -14 -28 -22 -28 -18 -1 4 -2 15 -3 23 -1 10 -11 14
-36 12 -57 -5 -63 -4 -105 4 -40 7 -69 26 -58 38 4 3 -7 6 -23 6 -23 0 -26 2
-14 11 11 8 4 9 -25 3 -22 -3 -51 -8 -65 -10 -66 -8 -125 -26 -133 -39 -4 -8
-25 -24 -45 -35 -20 -11 -44 -24 -52 -29 -8 -5 -36 -18 -62 -30 -26 -12 -50
-26 -53 -32 -4 -5 -15 -9 -27 -9 -11 0 -31 -9 -45 -20 -14 -11 -29 -17 -34
-15 -4 3 -29 -6 -54 -21 -31 -17 -57 -24 -76 -22 -16 3 -29 0 -29 -5 0 -5 -11
-6 -24 -3 -14 3 -36 2 -49 -3 -49 -19 -75 2 -101 82 -3 9 -1 17 4 17 5 0 7 7
4 15 -4 8 -1 15 5 15 6 0 8 6 5 14 -3 7 1 20 9 27 8 8 20 26 27 39 8 15 15 20
18 12 2 -6 8 -12 14 -12 6 0 8 6 5 13 -3 8 1 14 9 14 8 0 14 -5 15 -11 1 -6 5
0 9 14 l8 25 1 -24 c1 -22 4 -19 31 20 20 30 57 63 117 102 85 55 121 92 142
149 8 20 7 28 -4 32 -9 3 -18 -6 -24 -27 -21 -62 -108 -134 -155 -128 -10 2
-15 -2 -12 -8 4 -6 -4 -9 -22 -7 -22 3 -44 -8 -96 -47 -120 -92 -129 -97 -165
-103 -40 -6 -61 -36 -61 -87 0 -16 -5 -47 -12 -69 -16 -54 -38 -46 -59 22 -17
55 -17 55 -18 18 -1 -47 -13 -49 -29 -5 -6 17 -22 43 -34 57 -13 14 -47 53
-76 87 -69 81 -175 152 -231 156 -50 3 -105 43 -125 90 -8 18 -21 41 -30 52
-15 20 -15 20 -16 1 0 -11 18 -50 40 -87 39 -66 70 -90 150 -114 32 -10 130
-63 154 -84 31 -27 66 -107 66 -152 0 -53 -31 -106 -69 -114 -54 -12 -190 33
-235 78 -27 27 -62 44 -49 24 8 -13 0 -7 -83 55 -27 20 -52 34 -56 32 -5 -3
-8 0 -8 6 0 6 -4 8 -10 5 -5 -3 -10 -2 -10 4 0 5 -18 21 -40 34 -22 13 -37 27
-33 32 5 4 -1 5 -12 1 -43 -16 -87 -18 -187 -6 -63 7 -110 17 -120 27 -15 13
-18 12 -28 -7 -10 -18 -8 -25 14 -45 27 -25 19 -35 -30 -35 -13 0 -24 -3 -24
-8 0 -7 -35 -6 -102 4 -27 4 -38 2 -38 -6 0 -7 -8 -10 -20 -7 -11 3 -20 2 -20
-3 0 -4 -6 -8 -12 -7 -40 1 -58 -5 -58 -19 0 -8 -4 -12 -10 -9 -12 8 -13 -5
-1 -25 14 -20 -16 -38 -77 -46 -65 -8 -138 22 -148 60 -3 14 -10 26 -15 26 -5
0 -9 20 -9 46 0 42 20 100 55 166 8 14 15 33 15 41 0 9 5 17 12 19 6 2 11 18
11 36 0 24 5 32 19 32 10 0 18 -4 18 -10 0 -5 11 -9 24 -8 14 1 23 5 21 9 -3
3 13 25 34 48 22 24 34 40 27 38 -10 -4 -10 3 -2 29 6 19 14 34 18 34 5 0 8 7
8 15 0 7 6 18 14 22 16 9 44 113 53 197 5 45 10 60 25 64 10 2 19 11 19 18 1
8 2 19 3 26 2 21 26 21 26 0 0 -21 14 -23 40 -7 23 15 40 51 40 87 l1 33 18
-22 c11 -13 23 -18 30 -13 10 6 10 9 1 15 -8 5 -5 13 9 26 12 11 21 26 21 33
0 8 7 19 16 27 9 7 14 22 11 36 -2 13 0 23 4 23 5 0 9 -6 9 -12 0 -9 3 -9 9 1
5 8 7 21 3 30 -3 11 3 8 21 -8 14 -12 30 -20 36 -17 7 4 8 1 5 -9 -5 -13 1
-14 36 -10 43 6 110 50 110 73 0 6 7 12 15 12 8 0 15 7 15 15 0 18 16 20 23 3
3 -7 6 1 7 17 1 17 4 24 7 18 6 -15 40 -17 45 -3 2 5 31 11 65 12 58 3 63 5
63 26 0 27 7 28 28 2 23 -28 72 -37 72 -13 0 14 4 12 27 -8 15 -14 24 -18 21
-9 -22 62 -22 63 4 47 12 -8 35 -17 51 -21 25 -6 27 -4 28 26 l1 33 11 -39
c11 -35 14 -37 26 -22 7 9 22 16 32 16 10 0 21 5 24 11 4 5 17 14 28 20 12 5
29 13 37 17 45 26 62 32 70 27 5 -3 20 1 32 9 46 30 280 36 334 9z m-3446 -43
c0 -5 -4 -10 -10 -10 -5 0 -10 5 -10 10 0 6 5 10 10 10 6 0 10 -4 10 -10z
m5155 -40 c10 -11 16 -20 13 -20 -3 0 -13 9 -23 20 -10 11 -16 20 -13 20 3 0
13 -9 23 -20z m-5081 -22 c-3 -5 -12 -2 -20 6 -20 21 -17 28 5 14 11 -7 17
-16 15 -20z m-54 2 c-20 -13 -33 -13 -25 0 3 6 14 10 23 10 15 0 15 -2 2 -10z
m637 -97 c-17 -20 -94 -220 -127 -333 -28 -99 -28 -98 -29 -74 -1 30 55 222
79 269 11 21 20 46 20 55 0 21 59 114 67 106 3 -3 -1 -14 -10 -23z m-577 -168
c7 -8 8 -15 2 -15 -5 0 -15 7 -22 15 -7 8 -8 15 -2 15 5 0 15 -7 22 -15z m-45
-48 c7 -7 4 -8 -8 -3 -10 3 -25 6 -33 6 -8 0 -14 5 -14 11 0 12 40 2 55 -14z
m-1915 -22 c0 -19 -26 -25 -45 -11 -16 12 -16 13 0 30 13 13 20 14 31 5 8 -6
14 -17 14 -24z m1702 1 c12 0 14 -4 7 -12 -7 -9 -16 -9 -34 0 -28 12 -35 32
-7 21 9 -5 25 -8 34 -9z m233 -6 c3 -5 1 -10 -4 -10 -6 0 -11 5 -11 10 0 6 2
10 4 10 3 0 8 -4 11 -10z m-185 -10 c0 -5 -2 -10 -4 -10 -3 0 -8 5 -11 10 -3
6 -1 10 4 10 6 0 11 -4 11 -10z m5568 -15 c-3 -3 -9 2 -12 12 -6 14 -5 15 5 6
7 -7 10 -15 7 -18z m-5453 5 c3 -5 1 -10 -4 -10 -6 0 -11 5 -11 10 0 6 2 10 4
10 3 0 8 -4 11 -10z m5499 -87 c9 -18 14 -33 12 -33 -6 0 -36 55 -36 66 0 11
5 3 24 -33z m-7194 -2 c0 -6 -4 -13 -10 -16 -5 -3 -10 1 -10 9 0 9 5 16 10 16
6 0 10 -4 10 -9z m7615 -101 c3 -5 1 -10 -4 -10 -6 0 -11 5 -11 10 0 6 2 10 4
10 3 0 8 -4 11 -10z m-7337 -182 c-2 -13 -10 -23 -18 -23 -8 0 -16 10 -18 23
-3 17 2 22 18 22 16 0 21 -5 18 -22z m1304 -63 c8 -19 8 -28 -2 -40 -17 -20
-33 -19 -55 5 -17 19 -17 21 0 40 24 27 43 25 57 -5z m219 -4 c3 0 5 -11 4
-23 -2 -19 -7 -22 -31 -20 -16 2 -35 9 -42 15 -25 21 19 39 69 28z m4691 -22
c13 -18 16 -35 11 -67 -4 -29 -9 -39 -14 -30 -5 7 -9 9 -9 5 0 -5 -7 -1 -16 8
-9 8 -13 22 -10 30 6 17 -10 30 -19 15 -10 -16 -25 -12 -25 7 0 20 40 65 54
60 5 -2 18 -14 28 -28z m-4878 -146 c46 -23 45 -35 0 -31 -27 2 -39 9 -45 26
-10 27 -1 28 45 5z m4923 -5 c-3 -8 -6 -5 -6 6 -1 11 2 17 5 13 3 -3 4 -12 1
-19z m-4797 -13 c0 -4 -67 -35 -76 -35 -2 0 -4 4 -4 8 0 5 17 13 38 19 20 6
38 11 40 12 1 0 2 -1 2 -4z m1541 -32 c-12 -20 -14 -14 -5 12 4 9 9 14 11 11
3 -2 0 -13 -6 -23z m-530 -37 c1 -19 2 -18 8 4 7 23 8 22 26 -23 10 -26 15
-50 12 -53 -3 -3 0 -20 8 -37 17 -44 28 -107 17 -107 -4 0 -14 17 -21 38 -8
20 -17 39 -21 42 -8 6 -38 88 -50 137 -6 25 -5 30 6 26 8 -3 14 -15 15 -27z
m503 -17 c-4 -7 -7 -26 -7 -43 0 -17 -2 -23 -4 -13 -3 9 -8 17 -12 17 -5 0 -6
11 -3 25 2 14 11 25 19 25 8 0 11 -5 7 -11z m3989 -24 c4 -8 2 -17 -3 -20 -6
-4 -10 3 -10 14 0 25 6 27 13 6z m25 -48 c-4 -43 -16 -86 -38 -131 -39 -82
-50 -81 -17 1 13 32 30 89 37 126 7 37 15 67 18 67 2 0 2 -29 0 -63z m-368
-87 c-5 -10 -10 -30 -10 -45 0 -17 -4 -24 -11 -19 -8 4 -9 -1 -4 -16 4 -14 3
-20 -2 -17 -6 4 -10 -7 -11 -24 -1 -43 -12 -50 -13 -8 l-1 34 -11 -32 c-18
-49 -26 -49 -16 -1 6 24 14 47 20 53 5 5 9 20 9 35 0 17 -12 -1 -36 -55 -45
-103 -57 -114 -27 -26 13 38 28 104 35 145 16 104 35 98 30 -9 l-1 -30 14 30
c8 17 17 46 21 65 l8 35 8 -48 c5 -30 5 -54 -2 -67z m-310 85 c0 -8 -4 -15
-10 -15 -5 0 -10 7 -10 15 0 8 5 15 10 15 6 0 10 -7 10 -15z m-3600 -37 c0
-24 5 -61 10 -82 10 -46 1 -72 -12 -35 -5 13 -9 26 -9 29 -1 3 -5 10 -10 17
-6 6 -7 23 -3 37 4 16 2 26 -5 26 -6 0 -11 5 -11 11 0 5 5 7 10 4 6 -3 10 3
10 14 0 12 5 21 10 21 6 0 10 -19 10 -42z m-40 -104 c12 -35 26 -66 31 -69 5
-4 9 -21 9 -38 l-1 -32 -19 35 c-11 19 -24 51 -30 70 -5 19 -17 58 -25 85 -22
75 8 31 35 -51z m57 74 c-3 -8 -6 -5 -6 6 -1 11 2 17 5 13 3 -3 4 -12 1 -19z
m1192 -43 c75 -35 170 -122 224 -204 25 -37 64 -89 86 -115 37 -43 52 -76 34
-76 -10 0 -113 112 -164 179 -45 60 -94 101 -179 151 -64 38 -122 39 -234 5
-44 -13 -103 -29 -131 -34 -27 -5 -59 -13 -70 -17 -16 -6 -15 -3 5 13 28 23
312 122 350 123 14 0 49 -12 79 -25z m1801 -15 c13 -9 13 -10 0 -10 -8 0 -22
5 -30 10 -13 9 -13 10 0 10 8 0 22 -5 30 -10z m-2283 -46 c-3 -3 -12 -4 -19
-1 -8 3 -5 6 6 6 11 1 17 -2 13 -5z m-47 -14 c-8 -5 -19 -10 -25 -10 -5 0 -3
5 5 10 8 5 20 10 25 10 6 0 3 -5 -5 -10z m-3139 -27 c13 -16 12 -17 -3 -4 -17
13 -22 21 -14 21 2 0 10 -8 17 -17z m5792 -62 c34 -27 76 -64 92 -81 25 -26
17 -23 -45 19 -41 29 -91 62 -110 75 -19 13 -44 33 -55 46 l-20 22 38 -16 c22
-9 67 -38 100 -65z m926 20 c-6 -18 -14 -30 -17 -27 -2 3 1 19 8 36 16 40 23
33 9 -9z m-1324 20 c35 -8 30 -9 -40 -10 -44 -1 -98 -3 -120 -6 -37 -4 -37 -3
10 9 59 16 95 18 150 7z m-2892 -56 c17 -50 17 -50 -2 -25 -20 25 -32 65 -23
75 7 7 7 7 25 -50z m507 51 c0 -2 -7 -7 -16 -10 -8 -3 -12 -2 -9 4 6 10 25 14
25 6z m-53 -30 c-9 -7 -29 -22 -43 -32 -15 -11 -32 -25 -40 -32 -8 -7 -14 -9
-14 -4 0 8 11 18 75 66 11 9 25 15 30 15 6 0 2 -6 -8 -13z m5683 10 c0 -2 -7
-6 -15 -10 -8 -3 -15 -1 -15 4 0 6 7 10 15 10 8 0 15 -2 15 -4z m-90 -10 c0
-2 -7 -9 -15 -16 -13 -11 -14 -10 -9 4 5 14 24 23 24 12z m-4146 -47 c3 -17 6
-43 7 -58 1 -23 2 -22 11 9 l11 35 13 -45 c8 -24 20 -49 26 -56 7 -6 49 -21
92 -34 119 -34 200 -24 284 36 12 9 22 12 22 6 0 -18 -81 -60 -140 -73 -103
-22 -176 -12 -267 38 -51 28 -49 28 -56 3 -5 -18 -30 -26 -54 -17 -8 2 -7 56
3 140 5 36 10 47 24 47 12 0 20 -10 24 -31z m2286 -16 c-11 -17 -11 -17 -6 0
3 10 6 24 7 30 0 9 2 9 5 0 3 -7 0 -20 -6 -30z m-3632 4 c-13 -13 -89 -56 -78
-44 18 19 84 66 88 63 2 -3 -2 -11 -10 -19z m3162 14 c0 -5 -9 -19 -20 -32
l-21 -24 16 33 c15 31 25 41 25 23z m-758 -30 l32 -29 -31 -31 c-34 -34 -72
-40 -118 -19 -26 12 -42 48 -30 68 10 16 64 39 92 40 13 0 37 -13 55 -29z
m-2038 -29 c10 -17 -12 -32 -69 -47 -33 -8 -68 -15 -80 -15 -11 -1 -37 -7 -57
-14 -21 -8 -38 -12 -38 -11 0 2 25 18 56 36 83 47 175 72 188 51z m136 -7 c30
-15 33 -24 33 -78 -1 -40 -20 -57 -63 -57 -63 0 -96 58 -70 124 11 31 53 35
100 11z m1965 5 c3 -5 2 -10 -4 -10 -5 0 -13 5 -16 10 -3 6 -2 10 4 10 5 0 13
-4 16 -10z m143 -67 c26 -25 37 -38 25 -28 -22 18 -23 18 -23 -1 0 -10 -9 -34
-20 -51 -27 -45 -68 -45 -105 -2 -37 45 -31 77 20 106 22 13 44 23 48 23 5 0
29 -21 55 -47z m-768 23 c0 -3 -4 -8 -10 -11 -5 -3 -10 -1 -10 4 0 6 5 11 10
11 6 0 10 -2 10 -4z m-1134 -47 c65 -40 50 -109 -24 -109 -26 0 -43 9 -70 36
l-35 35 34 29 c41 35 52 36 95 9z m534 -10 c0 -20 -27 -38 -51 -33 -18 4 -20
3 -10 -4 10 -7 4 -9 -20 -7 -19 2 -45 4 -59 5 -15 1 4 11 50 25 89 28 90 28
90 14z m138 -79 c7 -11 8 -20 3 -20 -5 0 -11 6 -14 13 -3 9 -7 9 -20 -2 -10
-7 -17 -10 -17 -5 0 5 -7 1 -15 -10 -13 -17 -15 -17 -30 -2 -14 13 -15 19 -5
31 19 23 83 19 98 -5z m47 10 c3 -5 -3 -10 -14 -10 -11 0 -23 5 -26 10 -3 6 3
10 14 10 11 0 23 -4 26 -10z m-4930 -170 c-5 -8 -11 -8 -17 -2 -6 6 -7 16 -3
22 5 8 11 8 17 2 6 -6 7 -16 3 -22z m4962 24 c16 -3 40 -15 53 -26 l25 -20
-27 6 c-17 4 -28 2 -28 -4 0 -6 -8 -5 -20 2 -17 11 -22 10 -29 0 -7 -12 -12
-12 -29 -1 -17 10 -30 11 -62 2 -33 -8 -44 -8 -56 4 -14 14 -60 13 -116 -3
-37 -11 -16 13 25 28 43 17 204 24 264 12z m-1782 -34 c19 -8 19 -9 -2 -9 -12
-1 -25 4 -28 9 -7 12 2 12 30 0z m-1851 -83 c22 -21 79 -64 126 -94 47 -31
103 -70 125 -88 59 -46 220 -130 298 -154 100 -30 177 -41 323 -42 71 -1 140
-5 154 -9 l25 -7 -25 -6 c-14 -4 -50 -11 -80 -16 -30 -5 -68 -15 -85 -21 -37
-14 -155 -21 -155 -9 0 5 -10 9 -22 9 -30 0 -87 20 -121 43 -14 9 -34 18 -44
20 -26 4 -44 17 -38 28 4 5 2 9 -4 9 -12 0 -185 100 -216 125 -21 16 -72 52
-188 129 -70 48 -157 130 -157 148 0 11 9 4 84 -65z m-1087 41 c-3 -8 -6 -5
-6 6 -1 11 2 17 5 13 3 -3 4 -12 1 -19z m8183 12 c0 -5 -4 -10 -10 -10 -5 0
-10 -7 -10 -16 0 -14 -22 -44 -34 -44 -6 0 -123 -108 -220 -204 -39 -39 -75
-69 -80 -67 -5 1 -6 -7 -4 -17 6 -21 -25 -40 -149 -92 -40 -16 -105 -43 -143
-60 -39 -16 -77 -27 -85 -24 -8 3 -22 -2 -32 -12 -17 -16 -18 -16 -21 -1 -4
21 -21 22 -28 2 -4 -8 -14 -15 -23 -15 -14 0 -14 2 -1 10 13 9 13 11 1 19 -11
7 -9 10 10 14 13 2 -3 5 -36 6 -44 1 -56 4 -45 11 11 8 1 10 -35 9 -27 -1 -90
7 -140 19 -49 12 -114 24 -143 27 -147 14 -123 34 45 37 67 1 146 -4 184 -12
51 -10 94 -11 195 -3 71 6 139 15 149 21 11 6 58 25 105 42 47 18 102 43 122
56 21 13 42 24 48 24 5 0 10 4 10 8 0 5 15 16 33 25 66 35 94 55 159 118 70
67 110 99 140 111 10 4 18 12 18 18 0 5 5 10 10 10 6 0 10 -4 10 -10z m-3250
-40 l-23 -20 27 -10 c15 -5 30 -10 34 -10 4 0 34 -21 67 -46 205 -157 262
-195 335 -223 232 -90 420 -51 657 133 29 23 85 67 123 99 66 53 100 70 100
48 0 -12 -49 -47 -84 -61 -15 -5 -24 -15 -21 -20 4 -6 3 -9 -2 -8 -9 3 -50
-27 -147 -108 -119 -98 -183 -129 -328 -159 -62 -13 -89 -13 -148 -4 -39 6
-78 8 -86 5 -9 -3 -12 -1 -9 4 7 11 5 11 -40 14 -22 1 -29 -3 -27 -14 2 -11
-2 -10 -12 4 -8 10 -19 15 -25 12 -5 -4 -12 -2 -16 4 -9 14 -35 12 -32 -2 6
-31 171 -119 266 -144 43 -11 111 -16 210 -17 136 -1 151 1 215 26 84 33 90
33 160 2 40 -18 56 -30 56 -44 0 -24 -18 -36 -46 -33 -12 2 -37 -6 -55 -17
-19 -12 -45 -25 -59 -31 -14 -5 -33 -15 -42 -20 -10 -6 -25 -10 -33 -10 -9 0
-18 -7 -21 -15 -4 -8 -15 -15 -25 -15 -10 0 -19 -5 -19 -10 0 -6 -13 -9 -28
-8 -15 1 -33 -1 -39 -5 -6 -4 -44 -3 -86 3 -71 9 -118 28 -176 72 -13 10 -34
18 -47 18 -13 0 -24 4 -24 9 0 13 -49 20 -53 8 -3 -11 -38 10 -107 65 -80 63
-184 137 -188 133 -2 -2 18 -27 44 -55 27 -29 58 -65 68 -82 l20 -30 -25 7
c-25 7 -61 30 -141 91 -27 20 -48 31 -48 26 0 -6 26 -44 58 -84 63 -80 92
-123 92 -135 0 -17 -54 -12 -87 8 -23 14 -42 19 -61 15 -20 -5 -23 -4 -12 3
11 8 3 10 -30 10 -25 0 -189 2 -365 5 -269 4 -335 3 -415 -11 -52 -9 -111 -16
-130 -15 -19 0 -41 -4 -49 -11 -12 -10 -13 -6 -8 26 5 31 3 38 -8 33 -19 -7
-19 8 -1 23 24 20 129 161 123 167 -2 3 -20 -9 -38 -26 -19 -17 -52 -43 -74
-58 -22 -15 -43 -31 -47 -37 -4 -5 -8 -6 -8 -1 0 5 -10 0 -22 -11 -24 -22
-179 -103 -197 -103 -15 0 -14 27 1 32 7 3 -4 5 -25 6 -26 1 -60 -10 -111 -38
-41 -21 -77 -36 -80 -33 -3 3 -37 -4 -76 -16 -71 -22 -161 -22 -202 0 -9 5
-26 9 -38 9 -11 0 -23 7 -26 15 -4 9 -12 14 -19 13 -7 -2 -21 6 -32 17 -10 11
-36 26 -58 34 -21 8 -45 20 -53 28 -7 7 -17 11 -22 8 -4 -3 -11 2 -14 10 -4
13 -10 14 -26 5 -16 -8 -20 -8 -20 4 0 8 30 26 73 44 110 45 108 45 184 13 87
-37 168 -51 303 -51 128 0 219 14 274 42 49 25 260 168 264 180 2 4 8 5 13 2
13 -7 41 15 33 27 -3 5 -1 9 5 9 6 0 8 7 4 17 -5 13 -2 15 15 11 16 -4 19 -2
15 10 -4 10 -2 13 6 8 6 -4 23 0 36 8 37 25 30 7 -17 -43 l-43 -45 40 29 c22
16 80 63 128 105 175 149 249 189 326 175 50 -9 114 -48 149 -91 16 -19 54
-54 83 -76 30 -22 71 -55 93 -74 39 -35 56 -42 56 -24 0 6 -4 10 -10 10 -5 0
-10 7 -10 15 0 8 -3 15 -7 15 -5 0 -9 12 -10 26 0 15 -7 30 -15 35 -7 5 -10 9
-5 9 4 0 -2 9 -13 20 -12 12 -18 25 -15 30 3 5 -10 24 -29 42 -37 36 -36 44 4
71 35 24 59 22 30 -3z m4098 8 c-6 -18 -28 -21 -28 -4 0 9 7 16 16 16 9 0 14
-5 12 -12z m-4737 -45 c-13 -9 -40 -33 -59 -55 -19 -21 -38 -35 -43 -32 -5 3
-9 -1 -9 -10 0 -8 -5 -16 -11 -18 -7 -2 -10 -10 -8 -17 3 -8 13 -5 32 13 19
18 27 21 27 10 0 -8 -7 -17 -15 -20 -8 -4 -15 -12 -15 -20 0 -8 -7 -14 -15
-14 -7 0 -18 -6 -22 -14 -12 -20 -73 -48 -90 -41 -13 4 -14 3 -4 -9 10 -12 8
-14 -13 -12 -14 2 -24 0 -21 -3 2 -4 1 -11 -3 -17 -12 -17 -88 -64 -103 -64
-7 0 -27 -7 -44 -16 -25 -14 -49 -15 -145 -9 -63 4 -158 8 -211 9 -76 1 -99 5
-113 19 -10 9 -24 18 -32 18 -25 2 -28 4 -81 34 -29 17 -53 33 -53 38 0 4 -7
7 -16 7 -8 0 -12 5 -9 10 3 6 2 10 -3 10 -5 0 -30 19 -55 43 -83 78 -97 88
-169 122 -50 24 -65 35 -48 35 46 -1 106 -37 211 -127 204 -174 232 -187 424
-185 225 2 380 50 501 154 33 29 73 70 90 91 16 21 52 49 79 62 58 28 80 32
46 8z m841 -70 c106 -98 109 -100 73 -76 -17 12 -59 47 -95 78 -89 79 -86 75
-72 75 6 0 48 -34 94 -77z m1140 -33 c19 0 18 -2 -4 -29 -22 -28 -56 -52 -43
-31 4 6 -10 10 -33 10 -61 0 -101 -11 -107 -29 -7 -20 -42 -46 -75 -55 -20 -6
-22 -5 -10 4 13 9 12 10 -5 7 -11 -2 -19 -9 -17 -16 1 -7 -2 -10 -9 -5 -9 5
-3 15 17 32 16 13 40 34 54 46 72 62 116 79 184 70 16 -2 37 -4 48 -4z m-3221
-30 c13 -10 19 -19 12 -20 -6 0 -15 5 -19 11 -4 8 -29 10 -70 6 -35 -2 -64 -3
-64 -1 0 6 64 22 91 23 15 1 37 -8 50 -19z m1134 -50 c-3 -5 -11 -10 -16 -10
-6 0 -7 5 -4 10 3 6 11 10 16 10 6 0 7 -4 4 -10z m4749 -18 c2 -4 1 -14 -4
-22 -7 -11 -12 -12 -21 -3 -6 6 -8 16 -5 22 8 13 23 14 30 3z m-2721 -90 c27
-14 58 -40 69 -56 l20 -31 -24 25 c-13 14 -34 26 -47 27 -12 1 -30 10 -38 20
-8 10 -12 12 -8 5 5 -10 0 -11 -22 -7 -17 4 -23 3 -16 -2 8 -6 1 -9 -22 -9
-21 0 -30 3 -22 8 9 6 9 8 0 8 -6 0 -19 -7 -27 -16 -12 -12 -16 -12 -16 -2 0
10 -3 9 -10 -2 -11 -18 -23 -8 -14 13 8 22 85 58 109 51 11 -4 42 -18 68 -32z
m-3092 -4 c6 -13 8 -20 4 -16 -5 4 -13 3 -20 -2 -13 -11 -165 -30 -165 -20 0
3 19 18 42 33 55 36 122 38 139 5z m5876 0 c-3 -8 -6 -5 -6 6 -1 11 2 17 5 13
3 -3 4 -12 1 -19z m-2997 -67 c-6 -12 -20 -21 -31 -21 -11 0 -18 -4 -15 -8 12
-19 -45 -52 -90 -52 -14 0 -22 -4 -19 -10 6 -10 0 -9 -154 21 -51 11 -95 19
-97 19 -2 0 -4 4 -4 9 0 5 10 9 23 9 56 -1 321 43 367 60 29 11 36 2 20 -27z
m-6610 25 c0 -3 -4 -8 -10 -11 -5 -3 -10 -1 -10 4 0 6 5 11 10 11 6 0 10 -2
10 -4z m3857 -15 c100 -39 209 -54 352 -48 147 7 163 -3 44 -28 -78 -16 -305
-26 -297 -13 3 4 -1 8 -8 8 -24 0 -118 45 -115 55 2 5 -6 17 -17 27 -27 22
-18 22 41 -1z m4813 -126 c0 -8 -4 -15 -10 -15 -5 0 -10 7 -10 15 0 8 5 15 10
15 6 0 10 -7 10 -15z m530 -1 c0 -17 -22 -14 -28 4 -2 7 3 12 12 12 9 0 16 -7
16 -16z m-3548 -212 c86 -23 176 -51 200 -64 44 -23 106 -75 78 -65 -8 3 -49
13 -90 22 -41 9 -123 33 -182 52 -118 38 -334 72 -458 72 -41 0 -118 -9 -170
-20 -52 -11 -102 -20 -110 -20 -60 -1 -281 -50 -445 -98 -118 -35 -138 -25
-52 26 63 39 245 87 507 137 14 2 147 3 295 1 l270 -3 157 -40z m3828 8 c0 -5
-4 -10 -10 -10 -5 0 -10 5 -10 10 0 6 5 10 10 10 6 0 10 -4 10 -10z m-1995
-143 c-21 -42 -66 -111 -100 -155 -94 -119 -293 -280 -432 -351 -62 -31 -52
-18 14 19 133 75 344 252 400 334 16 23 31 46 36 51 18 25 55 84 82 133 42 78
42 55 0 -31z m-2167 -15 c2 -7 -2 -10 -12 -6 -8 3 -31 0 -51 -6 -29 -10 -46
-9 -81 0 -52 15 -49 24 7 26 22 0 42 3 44 6 9 9 89 -7 93 -20z m1727 -17 c-67
-60 -229 -168 -340 -227 -148 -77 -471 -189 -655 -227 -157 -32 -494 -69 -680
-75 -305 -10 -764 16 -958 53 -237 47 -559 147 -737 229 -105 49 -215 115
-215 129 0 2 21 -7 48 -21 75 -40 315 -144 412 -178 220 -78 485 -130 795
-158 201 -18 636 -24 790 -11 200 16 503 58 622 86 221 52 503 155 648 238
104 58 279 173 296 193 6 8 14 14 18 14 3 -1 -16 -21 -44 -45z m-5860 -7 c168
-64 290 -288 245 -450 -27 -96 -112 -171 -232 -205 -91 -25 -94 -26 -80 -15
10 7 3 11 -25 15 -56 9 -154 61 -210 111 -26 24 -54 41 -61 39 -7 -3 -10 1 -6
11 4 11 1 16 -11 16 -9 0 -13 5 -10 10 3 6 0 10 -7 10 -15 0 -42 28 -50 51 -3
8 -5 -5 -5 -29 0 -26 -7 -50 -17 -61 -17 -18 -79 -40 -124 -44 -19 -1 -20 -3
-9 -12 7 -5 12 -16 9 -23 -3 -10 -8 -8 -18 7 -19 27 -142 112 -148 102 -3 -4
13 -18 34 -30 22 -12 40 -26 40 -31 0 -5 8 -11 18 -14 17 -6 62 -64 62 -81 0
-4 -3 -6 -6 -2 -7 7 -23 -5 -76 -57 -21 -21 -41 -36 -44 -33 -3 3 -14 -3 -25
-14 -10 -10 -28 -19 -39 -19 -10 0 -24 -8 -29 -17 -7 -11 -11 -13 -11 -5 0 9
-7 11 -20 7 -22 -7 -88 11 -106 29 -31 32 -27 56 23 113 26 30 71 83 98 117
28 34 79 91 115 127 36 35 103 104 150 153 129 134 240 203 369 232 85 18 143
16 206 -8z m8365 -38 c0 -5 -2 -10 -4 -10 -3 0 -8 5 -11 10 -3 6 -1 10 4 10 6
0 11 -4 11 -10z m276 -55 c13 -21 14 -28 4 -41 -19 -22 -54 -14 -58 14 -4 23
13 52 29 52 5 0 16 -11 25 -25z m-3604 -96 c-13 -5 -76 -22 -140 -39 -204 -53
-438 -80 -686 -80 -204 0 -659 18 -751 30 -54 7 -38 7 70 3 622 -23 854 -19
1125 21 97 14 221 37 275 50 104 25 146 31 107 15z m-1675 -75 c-3 -3 -12 -4
-19 -1 -8 3 -5 6 6 6 11 1 17 -2 13 -5z m3883 -69 c0 -8 -4 -15 -10 -15 -5 0
-10 7 -10 15 0 8 5 15 10 15 6 0 10 -7 10 -15z m750 -15 c0 -5 -4 -10 -10 -10
-5 0 -10 5 -10 10 0 6 5 10 10 10 6 0 10 -4 10 -10z m-318 -75 c0 -5 -5 -11
-11 -13 -6 -2 -11 4 -11 13 0 9 5 15 11 13 6 -2 11 -8 11 -13z m1121 -56 c-17
-17 -37 -1 -22 17 8 10 15 12 23 4 7 -7 7 -13 -1 -21z m-6448 -62 c15 -14 -87
39 -110 58 -11 9 7 1 40 -16 33 -18 65 -37 70 -42z m3365 48 c0 -2 -22 -16
-50 -30 -27 -14 -50 -23 -50 -20 0 2 21 16 48 29 53 28 52 28 52 21z m519 -57
c-7 -13 -20 -34 -29 -48 -73 -109 -155 -289 -203 -451 -19 -60 -36 -107 -39
-104 -2 3 -5 -3 -5 -13 1 -52 -4 -73 -14 -66 -8 4 -9 -1 -4 -15 4 -12 2 -27
-3 -34 -5 -7 -13 -36 -17 -64 -4 -29 -10 -53 -13 -53 -4 0 -8 -17 -9 -38 0
-20 -6 -84 -12 -141 -6 -57 -11 -139 -11 -182 0 -88 -1 -89 -85 -200 -28 -36
-64 -92 -80 -124 -17 -33 -43 -73 -58 -90 l-29 -30 7 39 c17 100 65 200 143
301 76 97 100 135 84 135 -15 0 -187 -204 -212 -250 -7 -14 -30 -68 -51 -120
-21 -52 -38 -91 -39 -86 0 6 -7 1 -15 -10 -14 -19 -14 -19 -15 1 0 43 13 94
23 88 5 -3 7 -1 4 4 -8 12 29 108 83 216 21 42 35 77 30 77 -5 0 -12 -5 -16
-11 -4 -8 -8 -8 -13 -1 -12 19 -69 -79 -122 -208 -88 -214 -149 -341 -160
-334 -5 3 -6 -2 -3 -10 7 -18 0 -19 -106 -21 -36 -1 -87 -4 -115 -8 -34 -5
-44 -4 -30 2 14 7 -6 10 -72 10 -51 1 -93 -3 -93 -7 0 -7 -83 -9 -112 -4 -12
3 -9 60 3 67 6 4 8 14 5 22 -4 8 -1 11 5 7 6 -4 10 1 8 12 -2 20 3 38 31 96 9
21 20 35 24 31 3 -3 6 1 6 11 0 20 59 140 71 144 5 2 9 8 9 13 0 6 9 19 20 31
11 12 25 37 31 57 14 43 209 390 287 511 125 193 152 236 164 253 7 9 51 75
98 146 46 71 88 127 92 125 4 -3 8 -1 8 5 0 17 83 133 100 139 8 3 17 8 20 11
14 16 93 52 104 48 8 -3 24 5 36 18 13 13 25 24 29 23 25 -3 52 4 65 17 11 12
20 13 34 6 10 -5 28 -7 40 -4 15 3 22 1 23 -8 0 -8 4 -4 9 9 5 12 14 22 19 22
6 0 8 -7 4 -16 -3 -9 6 -4 21 10 14 15 26 30 26 34 0 8 21 32 27 32 2 0 -2
-10 -8 -22z m-4290 -57 c55 -27 123 -66 153 -88 69 -49 85 -59 128 -81 19 -9
42 -25 52 -34 10 -10 22 -18 26 -18 4 0 28 -18 52 -40 24 -22 50 -40 57 -40 7
0 13 -4 13 -10 0 -5 5 -10 12 -10 27 0 157 -115 258 -230 49 -56 163 -229 288
-435 64 -104 140 -228 171 -275 69 -106 91 -146 91 -166 0 -17 15 -14 83 16
23 10 45 16 51 13 5 -3 -8 -13 -30 -22 -89 -36 -87 -26 -27 -148 77 -156 90
-193 72 -204 -8 -4 -24 -7 -36 -4 -13 2 -23 1 -23 -3 0 -4 -75 -7 -168 -7 -92
0 -198 -3 -237 -6 -45 -4 -73 -2 -77 5 -5 7 -8 6 -8 -4 0 -10 -4 -9 -14 5 -7
11 -13 23 -12 27 0 4 -7 13 -16 20 -9 7 -43 65 -76 128 -108 210 -154 295
-161 300 -3 3 -19 22 -34 43 -15 20 -32 37 -38 37 -10 0 -2 -47 11 -65 15 -21
91 -217 86 -222 -3 -3 -10 6 -16 21 -5 15 -14 25 -18 22 -4 -2 -14 9 -21 25
-7 16 -17 27 -22 23 -5 -3 -9 4 -9 15 0 12 -6 21 -12 21 -7 0 -37 41 -66 90
-52 88 -156 220 -173 220 -24 0 -3 -44 52 -109 103 -123 170 -237 204 -347 12
-39 11 -41 -8 -36 -11 3 -22 13 -24 24 -3 10 -9 18 -14 18 -5 0 -9 4 -9 9 0
13 -104 167 -167 245 -31 39 -60 76 -64 81 -4 6 -12 84 -19 175 -14 199 -32
321 -65 434 -24 84 -109 285 -124 296 -4 3 -24 39 -45 80 -34 71 -41 84 -66
128 -33 58 -70 132 -65 132 3 0 49 -22 104 -49z m7031 19 c0 -13 -7 -20 -20
-20 -19 0 -27 20 -13 33 13 14 33 6 33 -13z m-6433 -39 c336 -151 747 -227
1273 -238 561 -11 1011 43 1445 176 71 22 131 38 133 37 5 -6 -101 -45 -193
-72 -415 -119 -752 -164 -1223 -164 -220 0 -497 14 -632 31 -272 35 -611 128
-810 223 -117 55 -112 60 7 7z m-2932 -15 c11 -5 26 -10 33 -12 28 -8 9 -22
-40 -28 -29 -4 -83 -20 -121 -37 -38 -16 -71 -29 -73 -29 -2 0 -4 17 -4 38 0
37 0 38 63 59 62 20 104 23 142 9z m2048 -19 c-2 -4 2 -19 11 -32 25 -38 19
-43 -8 -6 -35 47 -43 20 -10 -37 15 -26 30 -49 34 -52 13 -11 92 -173 124
-257 73 -189 93 -330 52 -371 -15 -15 -17 -15 -31 3 -8 11 -32 54 -54 95 -22
41 -60 107 -84 145 -25 39 -55 86 -68 105 -12 19 -44 71 -71 114 -51 82 -139
195 -165 209 -22 13 1 33 60 53 106 36 224 53 210 31z m249 -105 c79 -114 145
-293 185 -507 26 -140 28 -167 28 -410 0 -218 -3 -265 -16 -289 -15 -26 -15
-12 -11 205 4 204 2 252 -17 374 -36 236 -99 414 -231 655 -17 30 -30 61 -30
68 0 16 50 -36 92 -96z m4453 68 c-97 -153 -201 -423 -230 -594 -9 -50 -23
-109 -31 -131 -8 -22 -18 -93 -23 -158 -5 -65 -11 -121 -14 -124 -16 -15 29
452 54 562 46 200 136 424 169 417 8 -2 20 5 27 14 7 10 13 14 13 9 0 -4 11 4
25 19 35 38 39 32 10 -14z m1299 23 c8 -19 -8 -38 -23 -29 -16 10 -13 46 3 46
8 0 17 -8 20 -17z m-1089 -29 c44 -15 84 -30 88 -34 11 -10 -70 -183 -82 -175
-5 3 -7 -5 -3 -17 4 -16 2 -20 -9 -16 -11 4 -24 -11 -44 -51 -16 -31 -52 -96
-80 -146 -28 -49 -63 -119 -79 -155 -49 -112 -94 -192 -100 -181 -4 5 -13 8
-21 5 -10 -4 -19 4 -26 22 -15 38 3 189 31 264 12 30 36 98 55 150 46 130 85
215 130 280 21 30 38 61 38 68 0 17 11 16 102 -14z m-359 3 c8 10 -9 -26 -36
-79 -111 -213 -183 -492 -206 -802 -8 -109 -24 -78 -24 49 0 194 51 450 123
621 46 109 120 234 125 211 4 -18 4 -18 18 0z m1524 3 c0 -5 -4 -10 -10 -10
-5 0 -10 5 -10 10 0 6 5 10 10 10 6 0 10 -4 10 -10z m-1336 -27 c-9 -37 -57
-166 -84 -228 -13 -27 -33 -81 -46 -120 -18 -52 -23 -60 -18 -30 7 54 39 148
73 215 4 8 20 54 36 103 15 48 31 87 36 87 5 0 6 -12 3 -27z m-4641 -43 c-3
-11 0 -20 6 -20 6 0 11 6 11 13 0 14 32 -31 62 -88 13 -24 16 -41 10 -43 -6
-2 -9 -9 -6 -16 3 -7 1 -23 -4 -36 l-9 -24 -7 28 c-4 17 -2 34 5 42 13 15 4
64 -11 64 -6 0 -10 -4 -10 -10 0 -5 5 -10 10 -10 6 0 10 -7 10 -16 0 -8 -4
-13 -9 -9 -5 3 -12 -3 -14 -12 -3 -10 -5 -1 -6 20 -1 26 -5 36 -12 31 -7 -4
-10 -1 -7 7 3 8 11 13 17 12 6 -2 11 2 11 7 0 6 -4 10 -9 10 -5 0 -12 8 -15
18 -3 10 -4 8 -3 -7 3 -40 -20 -35 -26 5 -4 21 -4 41 -1 46 9 14 12 9 7 -12z
m-376 -91 c154 -127 465 -723 467 -897 1 -45 -3 -56 -23 -71 -15 -12 -21 -23
-16 -31 6 -9 4 -11 -5 -5 -10 6 -12 0 -7 -32 4 -22 4 -42 1 -46 -8 -8 -64 13
-64 25 0 5 -4 7 -8 4 -5 -3 -15 3 -24 12 -8 9 -33 31 -54 47 -21 17 -55 46
-74 66 -19 20 -60 54 -90 77 -30 22 -64 48 -75 58 -71 67 -302 233 -366 263
-19 10 -27 20 -24 30 7 25 -8 41 -44 45 -18 2 -37 9 -41 16 -12 19 -21 17 -35
-10 -15 -29 -12 -74 7 -97 10 -13 8 -13 -14 1 -16 10 -28 16 -28 13 0 -3 -3
-14 -6 -24 -5 -14 -4 -15 4 -3 9 12 14 12 31 -4 11 -10 24 -16 28 -13 15 10
91 -31 216 -114 196 -132 464 -366 541 -474 61 -85 63 -89 38 -76 -18 10 -20
8 -18 -24 1 -30 -2 -35 -21 -35 -12 0 -51 25 -88 56 -36 31 -69 54 -72 50 -3
-3 0 -12 7 -21 18 -22 -10 -20 -66 6 -33 15 -69 21 -137 22 -84 2 -97 5 -152
36 -307 174 -571 281 -692 281 l-45 0 31 42 c18 24 66 79 109 123 64 66 95 90
182 135 101 53 106 57 120 101 18 54 74 148 139 234 119 159 189 239 216 252
44 20 117 11 152 -18z m4262 9 c-7 -13 -58 -93 -114 -178 -109 -167 -339 -535
-399 -640 -201 -349 -329 -582 -357 -655 -15 -38 -36 -74 -46 -80 -10 -5 -20
-12 -23 -15 -3 -3 -38 -11 -79 -18 -88 -15 -155 -42 -187 -78 -13 -14 -24 -21
-24 -15 0 5 5 13 10 16 19 12 10 43 -17 61 -16 10 -31 18 -35 17 -21 -7 -32
78 -37 289 -3 124 -8 228 -11 231 -3 2 -150 8 -327 11 -315 7 -322 7 -320 -12
1 -19 12 -20 297 -24 167 -2 298 0 301 5 13 18 15 -23 9 -173 l-6 -155 -2 118
c-2 116 -2 118 -28 127 -14 6 -131 10 -261 10 l-236 0 7 -189 c4 -126 3 -192
-4 -196 -5 -3 -10 -3 -10 2 0 4 -12 9 -26 10 -15 0 -30 7 -35 14 -4 7 -8 65
-9 129 0 63 -4 133 -9 155 -8 37 -9 36 -11 -30 -1 -38 -4 -83 -6 -100 -3 -16
-6 -47 -6 -67 0 -21 -4 -36 -8 -33 -5 3 -28 38 -53 78 -79 130 -111 177 -178
265 -104 137 -276 379 -305 429 -66 111 -136 222 -142 225 -11 5 -85 159 -79
165 3 3 20 -2 38 -11 18 -9 40 -16 49 -16 9 0 20 -3 24 -7 16 -17 86 -35 142
-38 33 -1 70 -7 80 -13 11 -6 60 -18 110 -27 49 -9 94 -21 99 -25 6 -5 21 -8
35 -8 14 0 63 -7 110 -15 47 -9 178 -22 293 -28 227 -13 335 -6 482 31 44 11
109 25 145 30 77 13 187 38 215 50 40 16 82 29 155 46 41 9 91 24 110 32 19 8
52 14 72 13 20 -1 39 3 43 8 3 6 12 8 20 4 8 -3 15 0 15 6 0 6 10 11 23 11 35
0 99 26 109 44 6 11 16 15 28 11 27 -9 99 12 145 43 22 14 51 32 65 39 19 10
21 13 7 13 -15 0 -16 2 -5 14 9 10 15 11 20 3 5 -8 9 -6 14 6 3 9 10 15 14 12
4 -2 15 4 25 15 10 11 24 20 31 20 7 0 22 14 34 30 25 35 36 40 19 8z m1179
-6 c35 -15 54 -36 194 -209 83 -102 140 -188 153 -230 5 -19 3 -22 -12 -16
-10 4 -21 11 -25 17 -6 7 -11 6 -18 -4 -8 -12 -10 -12 -10 -1 0 8 -9 2 -21
-13 -11 -14 -19 -32 -17 -38 5 -15 -23 -45 -78 -81 -22 -15 -51 -37 -63 -49
-13 -11 -43 -36 -67 -54 -64 -49 -129 -106 -239 -209 -27 -26 -66 -59 -85 -74
-19 -14 -51 -41 -70 -58 -19 -18 -41 -33 -47 -33 -7 0 -13 -3 -13 -7 0 -11
-50 -33 -72 -33 -10 0 -21 6 -24 14 -4 12 19 76 44 121 3 6 -4 2 -15 -8 -20
-17 -21 -17 -27 8 -4 15 -12 25 -19 22 -19 -7 -19 58 -1 111 20 61 130 300
219 476 89 177 161 299 202 343 34 37 42 37 111 5z m1362 -36 c0 -8 -5 -18
-11 -22 -14 -8 -33 11 -25 25 10 16 36 13 36 -3z m-384 -37 c3 -6 1 -16 -5
-22 -9 -9 -14 -8 -21 3 -9 15 -4 30 10 30 5 0 12 -5 16 -11z m-5916 -43 c0 -6
-5 -4 -10 4 -9 13 -11 13 -20 0 -11 -17 -13 -1 -3 26 6 16 7 16 20 -2 7 -10
13 -23 13 -28z m5988 -218 c-6 -18 -28 -21 -28 -4 0 9 7 16 16 16 9 0 14 -5
12 -12z m-7293 -113 c0 -28 -29 -25 -33 3 -3 19 0 23 15 20 10 -2 18 -12 18
-23z m345 -9 c0 -3 -4 -8 -10 -11 -5 -3 -10 -1 -10 4 0 6 5 11 10 11 6 0 10
-2 10 -4z m6277 -89 c-7 -5 -3 -6 9 -3 33 10 152 -56 220 -121 80 -76 206
-244 164 -218 -16 10 -110 -21 -248 -81 -213 -92 -263 -117 -345 -171 -85 -56
-91 -58 -242 -72 -55 -5 -111 -13 -124 -17 -22 -6 -22 -5 -11 15 11 21 10 22
-12 10 -13 -7 -46 -30 -74 -51 -61 -46 -120 -67 -109 -40 3 9 9 31 12 47 6 28
5 29 -12 15 -52 -42 42 78 130 165 39 39 85 86 102 105 46 53 234 207 331 274
155 105 172 119 184 152 10 29 13 31 24 16 9 -13 9 -19 1 -25z m1398 15 c0
-18 -20 -15 -23 4 -3 10 1 15 10 12 7 -3 13 -10 13 -16z m-8041 -388 c109 -39
183 -77 259 -133 86 -64 51 -61 -98 9 -49 23 -124 55 -165 72 -96 38 -121 54
-114 73 4 8 9 15 11 15 3 0 51 -16 107 -36z m5513 -91 c-2 -21 -4 -6 -4 32 0
39 2 55 4 38 2 -18 2 -50 0 -70z m1534 80 c10 -12 10 -14 1 -9 -7 4 -24 -1
-40 -11 -77 -52 -302 -148 -302 -129 0 7 172 108 232 136 74 34 91 36 109 13z
m-5268 -233 c45 -75 82 -164 88 -210 4 -22 0 -25 -26 -26 -58 -1 -77 18 -130
133 -45 98 -50 116 -52 188 l-2 80 39 -45 c21 -25 59 -79 83 -120z m3547 -51
c-7 -64 -55 -173 -84 -191 -6 -4 -30 -7 -54 -6 l-42 1 6 36 c11 59 40 129 93
220 27 47 53 100 57 116 13 50 32 -96 24 -176z m2690 193 c0 -13 -12 -22 -22
-16 -10 6 -1 24 13 24 5 0 9 -4 9 -8z m-8063 -112 c80 -22 179 -63 204 -86 18
-16 14 -64 -5 -65 -98 -6 -344 15 -382 33 -12 5 -30 9 -40 8 -10 -1 -30 -2
-43 -1 -23 1 -23 1 -6 29 10 15 33 46 52 69 l33 42 58 -5 c31 -3 89 -14 129
-24z m7240 -27 c36 -40 84 -114 61 -96 -7 6 -22 9 -33 7 -136 -26 -425 -38
-432 -18 -16 45 199 133 351 143 10 0 34 -16 53 -36z m-8228 -2 c8 -14 7 -22
-3 -30 -18 -15 -52 10 -43 33 9 22 34 20 46 -3z m9031 -32 c0 -14 -5 -19 -17
-17 -26 5 -29 38 -4 38 15 0 21 -6 21 -21z m-2653 -36 c-3 -10 -5 -2 -5 17 0
19 2 27 5 18 2 -10 2 -26 0 -35z m2908 -23 c0 -22 -29 -18 -33 3 -3 14 1 18
15 15 10 -2 18 -10 18 -18z m-7504 -20 c125 -18 322 -95 369 -146 l23 -23 -37
10 c-20 5 -41 7 -48 3 -6 -4 -8 -3 -5 4 13 20 -84 44 -193 47 -114 4 -105 -3
35 -28 67 -12 261 -84 252 -93 -2 -2 -30 4 -62 12 -51 14 -73 14 -140 5 -44
-7 -143 -20 -220 -31 -176 -23 -252 -43 -318 -82 -81 -49 -184 -134 -277 -228
-101 -102 -124 -108 -118 -29 5 79 -6 68 -90 -86 -44 -82 -51 -90 -78 -90 -29
0 -29 0 -26 55 2 30 7 69 12 87 4 17 5 35 1 40 -12 13 8 88 29 111 11 12 20
28 20 36 0 8 37 48 82 90 46 41 79 78 76 82 -4 4 -13 2 -20 -3 -7 -6 -31 -16
-53 -23 -21 -7 -60 -23 -85 -36 -37 -19 -114 -43 -141 -44 -3 0 16 22 43 50
26 27 48 54 48 58 0 5 -22 4 -50 -2 -61 -12 -73 -2 -35 29 57 46 147 87 255
116 60 15 143 44 184 63 41 19 90 38 108 42 99 22 315 24 459 4z m5854 0 c40
-5 106 -24 151 -43 44 -19 143 -51 219 -70 160 -41 216 -63 263 -105 l33 -29
-41 0 c-22 0 -44 -3 -47 -7 -4 -3 1 -22 10 -41 22 -46 22 -45 -10 -36 -24 7
-50 18 -148 61 -35 15 -65 22 -65 13 0 -4 34 -42 77 -85 l76 -77 3 -75 c1 -41
8 -84 14 -95 6 -12 8 -25 5 -30 -3 -5 -1 -40 5 -78 6 -48 6 -69 -1 -72 -7 -2
-6 -7 2 -12 10 -6 8 -9 -9 -9 -18 0 -28 14 -57 75 -24 53 -40 75 -53 75 -10 0
-25 13 -34 28 -9 15 -40 52 -68 82 l-52 55 36 -51 c45 -65 86 -152 86 -184 0
-24 -1 -24 -35 13 -27 30 -39 36 -49 28 -17 -14 -32 -1 -89 80 -56 80 -151
170 -223 211 -30 16 -57 34 -60 39 -6 11 -75 42 -124 57 -99 29 -426 76 -486
69 -110 -12 7 41 146 67 47 8 106 18 133 21 62 8 51 26 -16 25 -29 0 -62 0
-74 0 -11 0 -56 -11 -100 -25 -43 -13 -94 -25 -113 -24 -35 0 -35 0 25 31 97
50 258 100 395 121 49 8 206 6 275 -3z m-3147 -67 c-32 -2 -86 -2 -120 0 -35
2 -9 3 57 3 66 0 94 -1 63 -3z m150 0 c-10 -2 -26 -2 -35 0 -10 3 -2 5 17 5
19 0 27 -2 18 -5z m-5 -70 c-7 -2 -21 -2 -30 0 -10 3 -4 5 12 5 17 0 24 -2 18
-5z m127 -103 l0 -99 -32 -9 c-18 -5 -125 -7 -237 -5 -184 4 -205 6 -224 24
-11 10 -24 19 -27 19 -4 0 -7 6 -7 13 0 9 44 10 206 4 113 -4 227 -6 253 -4
29 2 49 0 52 -7 2 -6 5 28 5 77 1 48 3 87 6 87 3 0 5 -45 5 -100z m4254 49
c-3 -5 -10 -7 -15 -3 -5 3 -7 10 -3 15 3 5 10 7 15 3 5 -3 7 -10 3 -15z
m-5907 -40 c27 -6 61 -17 76 -25 16 -8 34 -14 42 -14 7 0 18 -7 25 -15 10 -12
7 -31 -18 -103 -56 -159 -73 -304 -70 -599 3 -262 -8 -546 -23 -573 -13 -26
-29 34 -29 113 0 40 5 124 11 187 12 129 4 261 -14 223 -9 -21 -11 -21 -22 -6
-10 13 -13 0 -18 -68 -4 -46 -10 -113 -14 -149 -5 -36 -8 -125 -8 -197 1 -73
-3 -133 -8 -133 -4 0 -6 4 -2 9 3 6 -1 13 -8 18 -27 16 -37 77 -38 232 -1 86
-3 147 -6 136 -3 -11 -11 -25 -18 -31 -9 -7 -16 -46 -21 -115 -4 -57 -10 -110
-14 -118 -5 -9 -16 22 -30 80 -16 70 -22 128 -23 226 -1 73 -4 127 -8 120 -3
-7 -16 -56 -28 -110 -15 -63 -27 -97 -34 -94 -16 5 -34 116 -31 192 2 77 38
210 64 237 26 28 28 57 3 37 -40 -31 -52 -59 -83 -189 -18 -74 -37 -153 -43
-175 -6 -22 -11 -43 -11 -47 -1 -3 -4 -10 -8 -14 -5 -4 -8 -15 -8 -25 0 -9 -5
-19 -11 -21 -6 -2 -13 -33 -16 -68 -10 -111 -51 -159 -72 -83 -6 21 -11 96
-11 168 l-1 130 -19 -35 c-11 -19 -22 -56 -26 -82 -4 -27 -10 -48 -15 -48 -5
0 -9 -9 -9 -19 0 -11 -4 -23 -10 -26 -16 -10 -23 41 -14 103 4 31 8 122 9 202
1 169 28 341 72 455 5 15 3 16 -18 4 -13 -7 -26 -11 -29 -9 -11 6 -38 -69 -60
-165 -12 -55 -32 -143 -45 -195 -16 -70 -20 -109 -15 -147 3 -29 4 -50 1 -48
-3 1 -7 -15 -8 -38 -1 -27 2 -36 8 -26 14 22 11 3 -7 -41 -9 -23 -19 -39 -22
-36 -6 7 -42 -38 -42 -53 0 -6 -7 -8 -16 -4 -15 5 -16 18 -10 100 3 51 3 93
-1 93 -5 0 -16 -20 -26 -45 -11 -25 -23 -42 -28 -39 -5 3 -12 -3 -16 -13 -6
-16 -8 -15 -15 7 -5 19 -7 14 -5 -19 1 -28 -3 -46 -11 -49 -6 -2 -12 -13 -12
-25 0 -12 -11 -40 -25 -62 l-24 -40 -1 46 c0 25 9 94 21 155 16 90 41 350 40
429 0 11 6 45 14 76 22 84 19 83 -20 -6 -35 -79 -115 -318 -115 -342 0 -13
-53 -127 -68 -147 -5 -6 -14 -24 -20 -41 l-10 -30 -2 30 -1 30 -15 -25 c-13
-23 -14 -16 -9 80 l5 105 -26 -65 c-14 -36 -29 -81 -33 -101 -11 -53 -44 -114
-61 -114 -41 0 0 279 70 476 28 80 38 139 23 139 -3 0 -15 -7 -25 -17 -20 -18
-25 -4 -8 28 6 10 7 19 2 19 -21 0 -62 -131 -87 -275 -17 -99 -27 -139 -48
-182 -39 -83 -30 137 14 327 62 268 102 323 268 366 34 8 103 31 153 49 75 28
87 30 72 14 -9 -10 -12 -19 -7 -19 6 0 16 7 23 15 22 27 33 17 27 -25 l-5 -39
27 17 c14 9 28 19 31 23 11 13 50 29 72 29 15 0 32 -11 45 -28 22 -30 91 -52
162 -52 35 0 41 4 94 79 54 76 60 80 129 107 121 46 157 51 235 33z m1261 4
c-21 -2 -57 -2 -80 0 -24 2 -7 4 37 4 44 0 63 -2 43 -4z m280 0 c-10 -2 -28
-2 -40 0 -13 2 -5 4 17 4 22 1 32 -1 23 -4z m1517 -29 c113 -25 145 -43 227
-128 l76 -79 62 12 c80 16 110 30 110 51 0 36 25 43 82 25 29 -10 65 -26 81
-37 31 -22 37 -10 7 17 -11 10 -17 22 -14 26 9 16 38 10 99 -20 33 -16 96 -37
140 -46 44 -9 98 -28 120 -40 96 -56 167 -160 185 -272 6 -32 14 -74 20 -93 5
-19 10 -48 9 -65 -1 -28 -2 -28 -14 11 -16 52 -45 107 -52 101 -3 -3 2 -27 11
-54 34 -106 56 -292 38 -321 -12 -17 -30 46 -42 147 -15 120 -47 229 -82 288
-30 50 -58 69 -58 40 0 -7 18 -66 40 -131 59 -173 73 -246 74 -373 1 -132 -12
-161 -37 -82 -10 28 -17 58 -17 65 0 8 -4 22 -10 32 -13 24 -120 334 -120 349
0 20 -31 93 -40 93 -10 0 4 -63 40 -175 15 -49 37 -130 48 -180 40 -179 36
-208 -18 -122 -18 29 -40 63 -50 77 -27 39 -57 102 -85 175 -27 73 -65 145
-76 145 -8 0 -3 -50 11 -99 6 -23 6 -39 -1 -47 -7 -8 -7 -24 0 -46 8 -29 9
-30 11 -8 l2 25 8 -28 c5 -15 14 -69 20 -120 7 -50 16 -99 21 -108 4 -9 10
-53 13 -97 4 -64 2 -82 -8 -82 -16 0 -42 64 -60 152 -17 81 -35 137 -51 161
-12 18 -14 17 -21 -5 -5 -12 -7 -74 -6 -136 2 -67 -1 -112 -7 -112 -5 0 -29
35 -52 77 -23 43 -52 97 -65 119 -17 32 -24 65 -29 145 -7 106 -24 199 -52
279 -30 86 -63 151 -73 145 -15 -9 -13 -25 20 -142 17 -60 35 -153 41 -208 5
-55 16 -139 25 -187 10 -57 12 -94 6 -104 -8 -14 -12 -11 -21 19 -7 19 -18 40
-25 46 -11 9 -14 -6 -20 -76 -9 -114 -19 -159 -36 -155 -7 2 -20 -4 -30 -13
-24 -21 -29 -11 -40 77 -19 160 -53 322 -75 368 -7 14 -15 44 -19 67 -7 48
-24 98 -31 91 -3 -3 2 -27 10 -54 17 -55 31 -267 21 -308 -4 -15 -11 -24 -16
-21 -5 3 -18 -3 -28 -13 -25 -25 -40 -17 -54 31 -12 40 -13 36 -18 -87 -3 -89
-9 -131 -17 -133 -7 -3 -15 7 -19 21 -4 16 -13 26 -25 26 -14 0 -20 10 -25 50
-11 82 -19 65 -22 -49 -3 -110 -20 -192 -47 -226 -16 -19 -16 -19 -11 10 20
101 18 256 -3 391 -12 76 -26 147 -32 156 -5 10 -9 30 -10 45 0 25 -1 26 -9 8
-14 -33 -11 -254 5 -345 19 -110 19 -180 -1 -230 -30 -75 -44 -44 -44 105 0
55 -7 127 -15 160 -19 80 -19 150 2 272 15 91 16 118 5 230 -14 146 -42 267
-84 368 -17 39 -35 82 -41 97 -9 23 -8 31 6 45 32 32 160 40 262 17z m-4223
-1 c-6 -2 -10 -8 -8 -12 8 -12 -6 -25 -105 -96 -138 -101 -205 -161 -260 -235
-27 -36 -53 -70 -59 -77 -5 -7 -10 -15 -10 -18 0 -4 -20 -38 -45 -76 -25 -38
-45 -74 -45 -79 0 -6 -5 -10 -10 -10 -6 0 -18 -15 -27 -34 -11 -24 -21 -33
-34 -31 -11 2 -19 -1 -19 -7 0 -6 -2 -9 -5 -6 -10 9 26 173 57 258 59 167 67
179 183 279 45 39 47 41 15 25 -113 -56 -234 -190 -336 -373 -26 -46 -32 -52
-59 -49 -52 4 -57 14 -31 73 13 29 48 88 77 130 30 43 61 88 70 101 9 13 36
44 60 67 51 51 165 99 287 122 42 8 113 24 157 34 71 17 180 28 147 14z m228
-13 c32 -17 13 -36 -88 -84 -161 -77 -201 -100 -272 -157 -75 -59 -92 -88 -35
-59 20 10 43 24 51 31 8 6 17 9 20 6 3 -3 -12 -18 -33 -33 -21 -16 -41 -33
-45 -39 -4 -5 -13 -18 -20 -29 -7 -10 -17 -24 -23 -30 -16 -19 -34 -49 -46
-76 -8 -20 -12 -22 -20 -10 -8 12 -9 10 -4 -6 3 -13 -1 -26 -10 -34 -12 -10
-15 -10 -15 3 0 30 32 112 56 144 36 48 29 53 -11 8 -20 -21 -33 -45 -31 -52
3 -7 0 -12 -6 -10 -6 1 -17 -17 -25 -40 -8 -24 -19 -43 -24 -43 -5 0 -9 -7 -9
-16 0 -8 -11 -39 -24 -68 -14 -29 -39 -93 -56 -142 -18 -49 -43 -118 -57 -154
l-24 -65 6 86 c2 47 14 111 24 142 11 31 17 57 13 57 -3 0 -1 5 6 12 7 7 12
24 12 39 0 15 5 31 10 34 6 3 10 15 10 26 0 11 5 17 10 14 6 -3 10 0 10 8 0
18 61 135 102 195 43 64 166 185 261 256 103 78 231 116 287 86z m3313 -7 c-7
-2 -19 -2 -25 0 -7 3 -2 5 12 5 14 0 19 -2 13 -5z m1575 -2 c21 -7 32 -6 32 1
0 23 308 -15 375 -46 16 -8 50 -23 75 -34 90 -39 213 -174 293 -322 39 -70 57
-143 38 -154 -6 -4 -11 -2 -11 3 0 6 -9 10 -21 8 -12 -1 -26 6 -33 17 -6 11
-15 25 -19 30 -5 6 -29 44 -55 84 -26 40 -83 111 -126 158 -91 98 -144 136
-76 53 25 -30 47 -56 51 -59 31 -26 155 -271 164 -327 4 -21 9 -45 12 -53 7
-22 9 -123 2 -103 -27 74 -73 173 -80 173 -12 0 -11 -18 6 -64 18 -52 40 -174
32 -182 -18 -18 -72 96 -114 241 -12 40 -105 210 -147 269 -42 58 -143 157
-216 211 -47 35 -52 31 -9 -8 19 -17 60 -54 91 -82 60 -54 122 -136 152 -200
33 -72 56 -145 44 -145 -13 0 -27 17 -75 90 -20 30 -43 61 -50 68 -7 7 -20 28
-28 46 -33 68 -168 175 -255 201 -53 16 -146 58 -165 75 -11 9 -35 23 -52 31
-27 11 -30 15 -15 21 26 10 142 9 180 -1z m-2911 -20 c32 -17 99 -94 85 -99
-6 -2 -12 -14 -12 -27 0 -12 -6 -25 -12 -27 -18 -6 -175 -1 -278 8 -47 4 -89
6 -94 5 -5 -1 -48 -7 -95 -12 -94 -11 -204 -42 -236 -68 -21 -16 -35 -78 -16
-66 6 3 8 0 5 -9 -4 -12 10 -14 89 -14 74 1 101 -3 125 -18 17 -10 29 -21 27
-24 -9 -14 33 -46 76 -59 24 -7 62 -21 84 -31 22 -10 66 -25 98 -34 31 -9 57
-21 57 -26 0 -5 9 -12 20 -15 11 -4 18 -11 15 -16 -4 -5 2 -9 12 -9 15 0 16
-2 3 -10 -13 -9 -13 -10 0 -10 10 0 3 -12 -19 -31 -32 -29 -36 -30 -105 -26
-96 6 -269 40 -336 65 -8 4 -47 6 -86 7 -40 0 -77 5 -85 12 -8 7 -24 10 -35 8
-25 -6 -71 35 -91 82 -23 55 -30 399 -9 428 14 19 27 20 316 22 166 1 304 4
307 7 9 9 171 -2 190 -13z m1656 -5 c9 -5 17 -14 17 -22 0 -7 6 -11 13 -9 7 3
19 -10 28 -32 12 -29 15 -74 14 -198 0 -146 -3 -164 -23 -205 -34 -66 -103
-95 -264 -110 -67 -6 -126 -14 -132 -17 -14 -9 -129 -31 -244 -48 -75 -10
-118 -12 -154 -5 -28 6 -53 10 -55 10 -2 0 -1 5 2 11 4 6 -2 13 -14 16 -29 8
-26 25 9 48 16 11 30 23 30 28 0 4 5 7 12 7 23 0 108 44 108 56 0 13 22 24 46
24 9 0 12 -5 8 -11 -5 -9 1 -10 20 -5 14 3 38 9 52 12 19 5 25 4 20 -5 -8 -13
-4 -14 18 -5 9 3 14 9 12 13 -3 4 10 8 27 9 32 3 112 48 157 90 31 28 103 49
177 51 12 1 27 9 32 20 8 15 5 24 -12 42 -50 52 -75 66 -127 73 -29 4 -62 12
-72 17 -12 7 -18 6 -18 -1 0 -7 -6 -8 -19 0 -18 9 -109 8 -336 -5 -93 -5 -128
7 -133 46 -4 34 44 76 96 85 20 3 60 11 89 18 58 13 588 14 616 2z m-5919
-171 c3 -9 -1 -18 -10 -22 -19 -7 -28 2 -21 22 8 19 23 19 31 0z m9368 -30 c0
-5 -5 -11 -11 -13 -6 -2 -11 4 -11 13 0 9 5 15 11 13 6 -2 11 -8 11 -13z
m-4739 -34 c22 -38 23 -200 2 -303 -24 -111 -45 -275 -45 -342 0 -34 -7 -123
-17 -199 -12 -106 -19 -137 -30 -133 -10 4 -13 -6 -13 -39 0 -24 -4 -47 -10
-50 -9 -5 -14 7 -11 27 0 4 -8 10 -19 13 -10 3 -25 21 -31 40 -7 19 -16 32
-20 29 -4 -2 -11 6 -15 18 -3 13 -16 42 -26 65 -13 27 -18 52 -14 68 5 19 2
25 -10 25 -13 0 -15 6 -9 28 4 15 8 68 9 117 2 50 8 108 14 130 6 22 11 56 11
75 -1 89 10 162 35 249 42 145 72 194 126 204 49 9 56 7 73 -22z m225 -30 c13
-29 16 -78 17 -271 0 -227 -1 -238 -26 -315 -15 -44 -32 -118 -38 -165 -7 -47
-17 -109 -22 -139 -5 -30 -9 -67 -9 -83 0 -29 -14 -38 -23 -15 -3 6 -6 2 -6
-11 -1 -13 -7 -30 -15 -37 -26 -26 -35 85 -37 420 0 303 4 379 33 530 11 60
33 115 50 126 23 15 61 -5 76 -40z m-4532 28 c8 -14 -18 -31 -30 -19 -9 9 0
30 14 30 5 0 12 -5 16 -11z m-616 -48 c0 -27 -19 -36 -37 -18 -18 18 -9 37 18
37 12 0 19 -7 19 -19z m9420 -7 c0 -8 -5 -12 -10 -9 -6 4 -8 11 -5 16 9 14 15
11 15 -7z m-9680 -34 c0 -5 -4 -10 -10 -10 -5 0 -10 5 -10 10 0 6 5 10 10 10
6 0 10 -4 10 -10z m118 -283 c3 -21 -1 -27 -17 -27 -27 0 -34 15 -21 40 15 28
34 21 38 -13z m6262 -128 c-18 -32 -5 -34 44 -5 60 35 67 33 26 -9 -37 -38
-86 -48 -97 -19 -3 8 -12 13 -19 10 -8 -3 -14 -1 -14 5 0 6 9 13 20 16 11 3
20 9 20 14 0 5 7 9 15 9 13 0 14 -4 5 -21z m-1714 -250 l34 -21 -24 -19 c-34
-26 -69 -24 -105 8 l-30 27 22 12 c33 18 66 16 103 -7z m1698 5 c19 -19 21
-34 4 -34 -9 0 -8 -3 1 -9 21 -14 -31 -26 -56 -13 -10 5 -24 7 -32 4 -9 -3
-11 0 -6 8 5 9 2 10 -15 5 -21 -7 -21 -6 -6 17 9 14 13 28 9 31 -3 4 14 7 40
7 28 0 52 -6 61 -16z m-421 -43 c4 -4 -3 -17 -16 -29 -38 -36 -97 -4 -61 33
15 14 58 12 77 -4z m-5805 -31 c20 -19 21 -26 15 -120 -3 -55 -3 -100 1 -100
12 0 86 45 86 52 0 4 -9 12 -19 17 -18 10 -46 69 -37 78 8 9 65 -27 86 -54 12
-16 24 -27 26 -25 10 6 24 1 24 -9 0 -6 -9 -13 -20 -16 -11 -3 -20 -9 -20 -14
0 -14 -44 -55 -77 -73 -23 -11 -39 -13 -56 -7 -48 19 -57 45 -57 173 0 127 5
138 48 98z m842 -104 c0 -8 -4 -17 -9 -21 -12 -7 -24 12 -16 25 9 15 25 12 25
-4z m8670 -21 c0 -8 -7 -15 -15 -15 -8 0 -15 7 -15 15 0 8 7 15 15 15 8 0 15
-7 15 -15z"/>
<path d="M6048 8573 c6 -2 18 -2 25 0 6 3 1 5 -13 5 -14 0 -19 -2 -12 -5z"/>
<path d="M6340 8511 c19 -11 39 -20 45 -21 16 0 -28 27 -55 34 -19 5 -16 2 10
-13z"/>
<path d="M6290 8511 c0 -5 -9 -11 -21 -13 -15 -2 -11 -6 18 -15 35 -11 36 -10
18 4 -19 15 -19 15 10 8 33 -7 32 -4 -2 14 -14 7 -23 8 -23 2z"/>
<path d="M6836 8076 c3 -9 11 -16 16 -16 13 0 5 23 -10 28 -7 2 -10 -2 -6 -12z"/>
<path d="M6960 7946 c0 -2 8 -10 18 -17 15 -13 16 -12 3 4 -13 16 -21 21 -21
13z"/>
<path d="M7530 7116 c0 -8 4 -17 9 -20 5 -4 7 3 4 14 -6 23 -13 26 -13 6z"/>
<path d="M7560 7051 c0 -6 4 -13 10 -16 6 -3 7 1 4 9 -7 18 -14 21 -14 7z"/>
<path d="M7727 6650 c3 -14 5 -40 4 -57 -1 -21 3 -33 11 -33 8 -1 7 -5 -4 -14
-28 -21 -23 -46 10 -46 l27 -1 -24 -19 c-15 -13 -18 -20 -9 -20 8 0 23 9 34
21 18 20 18 21 0 31 -12 7 -16 17 -12 33 3 12 0 35 -8 51 -7 16 -18 40 -24 54
l-12 25 7 -25z"/>
<path d="M7711 6584 c0 -11 3 -14 6 -6 3 7 2 16 -1 19 -3 4 -6 -2 -5 -13z"/>
<path d="M4210 8700 c0 -5 5 -10 10 -10 6 0 10 5 10 10 0 6 -4 10 -10 10 -5 0
-10 -4 -10 -10z"/>
<path d="M5900 6109 c0 -38 -11 -43 -30 -13 l-17 25 -6 -30 c-6 -28 -27 -45
-27 -22 0 5 -16 5 -37 0 -21 -4 -99 -8 -175 -8 -137 0 -207 -11 -240 -39 -15
-13 -17 -10 -21 25 -3 31 -5 34 -11 16 -11 -29 -34 -33 -97 -17 -29 8 -80 12
-114 10 -194 -12 -253 -20 -286 -37 -20 -10 -40 -15 -44 -11 -5 4 -5 2 -2 -4
4 -7 -5 -19 -19 -29 -24 -16 -27 -16 -46 2 -15 13 -22 15 -25 6 -8 -21 -20
-15 -19 10 1 16 -5 23 -21 25 -13 2 -24 9 -24 15 -1 7 -5 -1 -8 -18 -4 -17 -3
-36 3 -44 9 -12 7 -13 -9 -7 -24 10 -137 28 -142 22 -2 -2 28 -11 67 -21 48
-12 76 -25 88 -40 l16 -22 46 20 c25 11 56 28 70 37 67 47 262 71 428 54 56
-6 62 -9 71 -35 11 -31 35 -39 45 -14 3 8 14 15 25 15 11 0 27 7 35 16 9 8 22
14 29 11 6 -2 -8 -14 -31 -26 -24 -12 -42 -25 -39 -28 5 -4 116 29 222 67 29
10 29 10 -9 5 -27 -3 -36 -1 -29 6 6 6 55 11 110 12 88 0 104 -2 144 -24 32
-18 45 -32 49 -53 5 -28 30 -50 30 -26 0 6 5 8 10 5 6 -4 7 -12 4 -18 -4 -7 6
0 22 15 29 27 72 40 184 56 69 9 64 28 -6 24 -45 -3 -55 0 -78 23 -14 14 -26
31 -26 37 0 6 -10 0 -22 -13 -11 -13 -19 -17 -16 -9 3 8 -1 29 -8 45 -13 30
-13 30 -14 4z m-623 -85 c-3 -3 -12 -4 -19 -1 -8 3 -5 6 6 6 11 1 17 -2 13 -5z
m206 -1 c-7 -2 -19 -2 -25 0 -7 3 -2 5 12 5 14 0 19 -2 13 -5z"/>
<path d="M5200 4850 c0 -5 5 -10 11 -10 5 0 7 5 4 10 -3 6 -8 10 -11 10 -2 0
-4 -4 -4 -10z"/>
<path d="M5320 4641 c0 -6 5 -13 10 -16 6 -3 10 1 10 9 0 9 -4 16 -10 16 -5 0
-10 -4 -10 -9z"/>
<path d="M4922 4482 c-11 -21 -18 -43 -14 -49 9 -14 132 -93 145 -93 5 0 34
-16 63 -35 29 -19 57 -35 63 -35 6 0 11 -6 11 -14 0 -25 84 6 88 33 2 12 11
21 21 21 10 0 35 7 56 16 20 8 34 10 30 5 -10 -17 35 3 98 43 57 37 76 68 63
102 -5 14 -16 16 -61 10 -61 -7 -108 1 -99 16 4 7 -12 7 -47 2 -30 -5 -121 -7
-204 -5 -188 4 -185 4 -179 13 3 4 1 8 -4 8 -4 0 -18 -17 -30 -38z"/>
<path d="M4783 4581 c0 -11 5 -18 9 -15 4 3 5 11 1 19 -7 21 -12 19 -10 -4z"/>
<path d="M1120 3814 c-277 -100 -310 -438 -54 -554 38 -18 59 -21 123 -16 87
5 103 8 97 14 -3 2 22 26 55 53 81 68 81 77 -1 21 -29 -20 -44 -23 -88 -20
-65 6 -121 42 -171 113 -35 47 -36 53 -36 135 0 99 20 151 69 181 42 26 112
25 151 -2 l30 -20 -38 7 c-33 6 -39 4 -44 -15 -3 -11 -9 -18 -14 -15 -5 3 -9
-6 -9 -19 0 -21 -16 -37 -36 -37 -8 0 -4 42 6 61 6 10 7 19 2 19 -18 0 -42
-27 -57 -62 -15 -37 -15 -38 16 -72 16 -19 46 -40 66 -47 45 -15 116 -5 153
21 28 20 52 13 27 -8 -47 -38 -93 -54 -156 -52 -36 1 -72 2 -78 1 -36 -3 12
-123 58 -146 38 -20 78 -19 116 5 34 20 78 82 88 123 12 46 -13 129 -55 185
-48 63 -40 69 13 10 l38 -43 -34 65 c-58 109 -140 149 -237 114z m-70 -99 c0
-8 -4 -15 -10 -15 -5 0 -9 -3 -8 -7 4 -15 -26 -82 -34 -77 -22 14 6 -166 33
-218 6 -10 7 -18 4 -18 -4 0 -20 30 -37 67 -24 55 -29 77 -26 119 6 75 78 212
78 149z"/>
<path d="M870 3771 c-25 -16 -72 -57 -105 -92 l-60 -63 70 65 c39 36 87 75
108 88 20 12 37 25 37 27 0 6 -3 5 -50 -25z"/>
<path d="M609 3533 c-13 -16 -12 -17 4 -4 9 7 17 15 17 17 0 8 -8 3 -21 -13z"/>
<path d="M526 3322 c-9 -15 9 -29 29 -22 19 7 19 7 -2 18 -12 7 -24 8 -27 4z"/>
<path d="M7125 2535 c-3 -26 -4 -49 -2 -51 3 -3 8 16 12 41 3 26 4 49 2 51 -3
3 -8 -16 -12 -41z"/>
<path d="M3051 2934 c0 -11 3 -14 6 -6 3 7 2 16 -1 19 -3 4 -6 -2 -5 -13z"/>
<path d="M6480 2800 c0 -5 5 -10 10 -10 6 0 10 5 10 10 0 6 -4 10 -10 10 -5 0
-10 -4 -10 -10z"/>
<path d="M2568 1663 c6 -2 18 -2 25 0 6 3 1 5 -13 5 -14 0 -19 -2 -12 -5z"/>
<path d="M2826 1040 c-27 -42 -58 -113 -70 -165 -11 -44 8 -20 32 40 11 28 32
76 46 108 14 31 24 57 22 57 -2 0 -15 -18 -30 -40z"/>
<path d="M7930 1117 c0 -2 18 -28 40 -57 22 -29 40 -49 40 -44 0 17 -59 104
-70 104 -5 0 -10 -1 -10 -3z"/>
<path d="M4310 1060 c-17 -6 -19 -8 -7 -9 10 -1 16 -5 13 -10 -3 -5 1 -12 9
-15 21 -8 76 5 69 16 -3 5 -13 7 -21 4 -9 -4 -21 0 -27 7 -7 10 -19 12 -36 7z"/>
<path d="M6612 1320 c0 -14 2 -19 5 -12 2 6 2 18 0 25 -3 6 -5 1 -5 -13z"/>
<path d="M5064 10215 c21 -16 32 -13 21 4 -3 6 -14 11 -23 11 -15 -1 -15 -2 2
-15z"/>
<path d="M5070 10024 c0 -8 5 -12 10 -9 6 4 19 1 28 -6 13 -11 12 -8 -2 9 -22
26 -36 28 -36 6z"/>
<path d="M4951 9840 c-10 -5 -9 -8 2 -13 7 -3 19 -2 26 3 10 5 9 8 -2 13 -7 3
-19 2 -26 -3z"/>
<path d="M4646 9614 c-8 -21 -8 -21 8 -27 9 -4 14 2 14 19 0 27 -13 32 -22 8z"/>
<path d="M4008 9603 c6 -2 18 -2 25 0 6 3 1 5 -13 5 -14 0 -19 -2 -12 -5z"/>
<path d="M4496 9561 c-4 -7 -5 -15 -2 -18 9 -9 19 4 14 18 -4 11 -6 11 -12 0z"/>
<path d="M4450 9530 c0 -5 5 -10 11 -10 5 0 7 5 4 10 -3 6 -8 10 -11 10 -2 0
-4 -4 -4 -10z"/>
<path d="M4470 9502 c0 -12 23 -32 37 -32 11 0 11 4 1 20 -13 20 -38 28 -38
12z"/>
<path d="M4596 9463 c-11 -11 -6 -23 9 -23 8 0 15 4 15 9 0 13 -16 22 -24 14z"/>
<path d="M4395 9429 c-4 -6 -5 -12 -2 -15 2 -3 7 2 10 11 7 17 1 20 -8 4z"/>
<path d="M3895 9340 c-3 -5 -1 -10 4 -10 6 0 11 5 11 10 0 6 -2 10 -4 10 -3 0
-8 -4 -11 -10z"/>
<path d="M3810 9316 c0 -6 66 -46 76 -46 4 0 -7 11 -26 25 -31 23 -50 31 -50
21z"/>
<path d="M3905 9288 c4 -18 9 -35 12 -38 3 -3 3 5 0 17 -3 13 -1 26 4 29 11 6
2 24 -12 24 -5 0 -7 -14 -4 -32z"/>
<path d="M3970 9250 c0 -5 7 -10 15 -10 8 0 15 5 15 10 0 6 -7 10 -15 10 -8 0
-15 -4 -15 -10z"/>
<path d="M3135 9170 c4 -6 11 -8 16 -5 14 9 11 15 -7 15 -8 0 -12 -5 -9 -10z"/>
<path d="M3470 9124 c0 -3 7 -12 15 -20 16 -17 18 -14 9 10 -6 15 -24 23 -24
10z"/>
<path d="M3850 9110 c0 -5 5 -10 10 -10 6 0 10 5 10 10 0 6 -4 10 -10 10 -5 0
-10 -4 -10 -10z"/>
<path d="M3801 9026 c2 -2 15 -9 29 -16 23 -12 24 -12 11 3 -7 10 -20 17 -29
17 -8 0 -13 -2 -11 -4z"/>
<path d="M3860 8990 c0 -6 7 -10 15 -10 8 0 15 2 15 4 0 2 -7 6 -15 10 -8 3
-15 1 -15 -4z"/>
<path d="M3948 8943 c7 -3 16 -2 19 1 4 3 -2 6 -13 5 -11 0 -14 -3 -6 -6z"/>
<path d="M2750 8847 c0 -8 7 -28 15 -43 13 -26 15 -27 15 -7 0 12 -5 25 -10
28 -6 4 -8 10 -5 15 3 5 1 11 -5 15 -5 3 -10 0 -10 -8z"/>
<path d="M2790 8763 c0 -4 5 -15 10 -23 8 -13 10 -13 10 2 0 9 -4 20 -10 23
-5 3 -10 3 -10 -2z"/>
<path d="M3766 8744 c-4 -9 -4 -19 -2 -21 8 -8 26 8 26 23 0 19 -16 18 -24 -2z"/>
<path d="M3688 8723 c7 -3 16 -2 19 1 4 3 -2 6 -13 5 -11 0 -14 -3 -6 -6z"/>
<path d="M3720 8710 c0 -5 7 -10 16 -10 8 0 12 5 9 10 -3 6 -10 10 -16 10 -5
0 -9 -4 -9 -10z"/>
<path d="M2809 8693 c-1 -5 -1 -11 0 -15 0 -5 -4 -8 -10 -8 -5 0 -7 -4 -4 -10
12 -19 30 -10 31 15 2 22 -14 37 -17 18z"/>
<path d="M3290 8681 c0 -6 5 -13 10 -16 6 -3 10 1 10 9 0 9 -4 16 -10 16 -5 0
-10 -4 -10 -9z"/>
<path d="M2874 8599 c-3 -6 -1 -16 5 -22 8 -8 11 -5 11 11 0 24 -5 28 -16 11z"/>
<path d="M2677 8410 c24 -38 53 -72 53 -62 0 7 -14 26 -31 44 -18 18 -27 26
-22 18z"/>
<path d="M2747 8354 c-4 -4 -7 -14 -7 -23 0 -11 3 -12 11 -4 6 6 10 16 7 23
-2 6 -7 8 -11 4z"/>
<path d="M2610 8147 c0 -9 14 -25 30 -37 17 -12 30 -17 30 -11 0 6 23 -5 50
-25 28 -20 50 -34 50 -31 0 11 -104 107 -116 107 -7 0 -19 3 -28 6 -10 4 -16
1 -16 -9z"/>
<path d="M2910 8050 c0 -5 7 -10 16 -10 8 0 12 5 9 10 -3 6 -10 10 -16 10 -5
0 -9 -4 -9 -10z"/>
<path d="M2520 7894 c0 -16 -26 -43 -42 -44 -5 0 -8 7 -8 16 0 11 -5 14 -17 9
-10 -4 -25 -8 -33 -8 -29 -1 -39 -31 -40 -116 0 -74 2 -82 15 -71 11 9 14 22
10 40 -5 22 0 29 33 48 33 18 41 20 51 8 17 -20 48 -8 54 21 6 33 -3 102 -14
109 -5 3 -9 -2 -9 -12z m-42 -74 c-7 -10 -14 -18 -15 -16 -6 6 9 36 18 36 5 0
4 -9 -3 -20z"/>
<path d="M2546 7772 c-3 -6 1 -23 9 -38 11 -23 15 -25 20 -12 13 34 -12 76
-29 50z"/>
<path d="M2406 7683 c-10 -10 -7 -51 4 -58 6 -3 10 -1 10 4 0 22 17 10 33 -21
14 -29 16 -30 16 -10 1 12 8 25 16 28 21 8 9 23 -14 17 -13 -3 -21 2 -25 15
-7 21 -30 35 -40 25z"/>
<path d="M2493 7683 c-10 -4 -9 -8 1 -19 18 -18 26 -18 26 0 0 18 -11 25 -27
19z"/>
<path d="M2568 7661 c-19 -19 -24 -41 -10 -41 5 0 17 9 27 20 23 26 7 45 -17
21z"/>
<path d="M2510 7631 c0 -5 5 -13 10 -16 6 -3 10 -2 10 4 0 5 -4 13 -10 16 -5
3 -10 2 -10 -4z"/>
<path d="M2480 7599 c0 -5 5 -7 10 -4 6 3 10 8 10 11 0 2 -4 4 -10 4 -5 0 -10
-5 -10 -11z"/>
<path d="M2371 7584 c0 -11 3 -14 6 -6 3 7 2 16 -1 19 -3 4 -6 -2 -5 -13z"/>
<path d="M2473 7565 c-8 -22 6 -33 17 -15 13 20 12 30 0 30 -6 0 -13 -7 -17
-15z"/>
<path d="M2381 7540 c0 -8 4 -22 9 -30 12 -18 12 -2 0 25 -6 13 -9 15 -9 5z"/>
<path d="M2402 7465 c0 -11 3 -29 8 -40 11 -25 11 1 0 35 -6 20 -8 21 -8 5z"/>
<path d="M2501 7454 c0 -11 3 -14 6 -6 3 7 2 16 -1 19 -3 4 -6 -2 -5 -13z"/>
<path d="M2457 7427 c-4 -11 -4 -24 0 -30 4 -6 0 -8 -10 -4 -11 4 -17 1 -17
-8 0 -19 40 -31 51 -14 4 7 4 16 -1 19 -4 3 -10 16 -12 30 -3 22 -4 23 -11 7z"/>
<path d="M2292 7418 c5 -15 28 -23 28 -10 0 5 -7 13 -16 16 -10 4 -14 1 -12
-6z"/>
<path d="M1870 7177 c0 -8 -5 -17 -12 -19 -8 -3 -9 -6 -1 -11 5 -3 18 -1 27 6
16 12 16 14 2 26 -13 11 -16 11 -16 -2z"/>
<path d="M1802 7100 c15 -25 53 -36 64 -18 10 15 -4 22 -20 9 -11 -10 -19 -7
-37 11 l-23 23 16 -25z"/>
<path d="M1920 7039 c0 -6 -9 -9 -20 -6 -11 3 -20 2 -20 -3 0 -4 13 -10 29
-12 23 -3 27 -1 23 14 -5 20 -12 24 -12 7z"/>
<path d="M1353 6977 c-2 -30 -1 -31 9 -9 7 14 8 26 2 32 -6 6 -10 -2 -11 -23z"/>
<path d="M1890 6990 c0 -5 5 -10 10 -10 6 0 10 5 10 10 0 6 -4 10 -10 10 -5 0
-10 -4 -10 -10z"/>
<path d="M1481 6844 c0 -11 3 -14 6 -6 3 7 2 16 -1 19 -3 4 -6 -2 -5 -13z"/>
<path d="M1542 6825 c0 -16 2 -22 5 -12 2 9 2 23 0 30 -3 6 -5 -1 -5 -18z"/>
<path d="M1487 6773 c-4 -3 -7 -18 -6 -32 1 -26 1 -25 10 3 9 31 7 41 -4 29z"/>
<path d="M1710 6694 c1 -14 29 -48 35 -42 3 2 -4 15 -15 28 -11 13 -20 19 -20
14z"/>
<path d="M1780 6450 c0 -5 -6 -10 -13 -10 -7 0 -30 -9 -52 -20 -22 -11 -45
-20 -52 -20 -18 0 -16 -17 2 -24 9 -3 18 1 22 10 3 8 12 13 20 10 8 -3 11 -1
8 4 -3 6 1 10 10 10 22 0 75 28 75 40 0 6 -4 10 -10 10 -5 0 -10 -4 -10 -10z"/>
<path d="M1609 6368 c-1 -7 0 -19 1 -27 1 -9 -4 -12 -16 -7 -10 4 -43 4 -74 0
-30 -4 -49 -9 -42 -11 6 -3 10 -9 6 -14 -9 -15 25 -10 52 7 13 9 27 14 31 11
3 -4 -5 -11 -18 -16 -43 -17 -6 -12 41 6 61 23 73 36 49 51 -24 15 -29 15 -30
0z"/>
<path d="M1505 6079 c-4 -6 -5 -12 -2 -15 2 -3 7 2 10 11 7 17 1 20 -8 4z"/>
<path d="M1513 6011 c0 -11 5 -18 9 -15 4 3 5 11 1 19 -7 21 -12 19 -10 -4z"/>
<path d="M1630 6020 c0 -5 7 -10 16 -10 8 0 12 5 9 10 -3 6 -10 10 -16 10 -5
0 -9 -4 -9 -10z"/>
<path d="M2850 5711 c0 -5 5 -13 10 -16 6 -3 10 -2 10 4 0 5 -4 13 -10 16 -5
3 -10 2 -10 -4z"/>
<path d="M8298 5403 c7 -3 16 -2 19 1 4 3 -2 6 -13 5 -11 0 -14 -3 -6 -6z"/>
<path d="M8288 5383 c7 -3 16 -2 19 1 4 3 -2 6 -13 5 -11 0 -14 -3 -6 -6z"/>
</g>
</svg>
